<mxfile host="app.diagrams.net" agent="Mozilla/5.0 (Windows NT 10.0; Win64; x64) AppleWebKit/537.36 (KHTML, like Gecko) Chrome/131.0.0.0 Safari/537.36" version="24.8.8">
  <diagram name="Page-1" id="doajdNXKbmWn596gQeVC">
    <mxGraphModel dx="792" dy="1097" grid="1" gridSize="10" guides="1" tooltips="1" connect="1" arrows="1" fold="1" page="1" pageScale="1" pageWidth="850" pageHeight="1100" math="0" shadow="0">
      <root>
        <mxCell id="0" />
        <mxCell id="1" parent="0" />
        <mxCell id="CwI_LgiP8_NniUalK2Lb-1" value="&lt;h1 style=&quot;margin-top: 0px;&quot;&gt;Shredding Program&lt;/h1&gt;" style="text;html=1;whiteSpace=wrap;overflow=hidden;rounded=0;" vertex="1" parent="1">
          <mxGeometry x="260" width="180" height="120" as="geometry" />
        </mxCell>
        <mxCell id="CwI_LgiP8_NniUalK2Lb-2" value="" style="shape=image;verticalLabelPosition=bottom;labelBackgroundColor=default;verticalAlign=top;aspect=fixed;imageAspect=0;image=data:image/webp,UklGRvqXAABXRUJQVlA4IO6XAADw1AOdASoABKsCPm00lkckJaetp1O6+bANiWduKU4sEsOjHlnaynA1f7v9nhNlRTWF+uvBrL+mcs7nX997Vvhh+Z63OWftT/Q+/LekF/4eZz9nw2M+6ifJ6X/j/1RjR54vUee3Xd9kf6u/9fvEeXjyp+Zz/1+vnC506P5f2M/mm16d77GUqb534Gfd18+fqvObh+si3zq7szzE+rX41y5EJZuegcHu00uq/UnAxBxY//t3fFQ2F8d5SI+bBCaK3YSdQd7+jLnZ1ZfFJrPvfnWPGdnHl0aOkHWyBeXTcSku0wV0659F1xoW5Edidtrpmq6PToOdaEC8Zx5JrPcwWMDJBtxMaUZlqnLdmrO06IQznmCx543WGqTBI3QZw/XVlOXmPnyWpT+ZZDfrLwGqLCdf4QO24UF/OqO2mTqe59Xn/bb27mSCxSqN2xSZXxLKDB0x6H1Bl4etp7yJCJpmrwdc+7Pr+JTJSNxLo7JvHwQ9+gO41PE9pGNlmdZoix08yzjSlTnT1iTfZypqGvjbO6yJwhNLeiceaQZNoT/g9S7+FHDtqDgPWCM5GG48mSI78PPWeVn53GWxxlkYO6/MezNFt9R4XZEvIaHiPtUhbXH5KHefidRavEBGgnJBj2ybwTZmvpDjD2nzaI8D/mBPGZ2NmyzdqK4L4eB4EpCU0Kj4dj9GmoEVKIr6MiaqDvYQl0FmHgz4Cq3H7PD7VtQ8fAhLFhheFUsIXULpN32tJYnDzgm4nW4/0vnjO2a3Onn5Hr1BR4zMfdzB+dCEEB+nPT0uHbgMslk7R3KiCLg9n9oCpCH6bp/9fsNfO0pp8q5i6QP6E+T6nVMBbIMc0LP/erZFDMdHhBy0udn4GDFsoNQ50PGNi72LHYEXrENoAJrmnqjBRL++wxcUjiBHt5h2BpsVawCyVTGwhE9TyplqVvGVbjNoHWAkV48GLrpiWOrr8hszGepeSYYUZJrgkjVa0IJXvDnmkW9IaoK+q4lBkg2hyMX215u8fMyJuXOaXXnMpTOOMQpsajV6Ako8ZEmi0uOFbXDqiqr/vJhYlKCoaaRx+zn3X+FVljokwJTVPxheUFgffLlBmLzJTepq5/6/EyWbUUuTUKIv2D9TIGU64eYlRhPZ31hqC1ktxsecErarS9ED7aSDJDLQcJ8wqhDbaMSLWfxauFA0qlCZIg/YQo6Mi2XkL6S106QwwXyoXK6kygy9SUIaNLG/Wdu3vV/EiCTxdKLKGG/VaGVz0E3cvIj9BdkVJM2nrKVPgAJEct+UzumKdU1EXFAIK7zYua6cTDdQH1bU9wtIhXrzhZV9kuEL/3h0bzL0QCedq1q2famHXVbn1JwwkjTYJs/y9NFxN9iwqwLus6FnpjfboqbeyFVSlczgfJB7kCiudzpGLb80njb3uSN6YEO6PIFp5GCL0Zse97D785eZH8YBXEpXZa2JvZbFUIECDabPAdsMv8dHSSwgJeEW8AuabQl4nBVM7b7aXcaiPcz1UqARzS7IMV0L0J6djAcjtEFAPjh8KuPX5lIZoFnWcv/NwpAhl0wGwbjYc5zpM/rZGDtEK9Fs93rN0JBu2LaEPgp6Vht+/SjCjDk9CHdOvNLnV/1m4jAFMwPDXe7Rf6Shp7eiSIlw7sxd9YWECBdxNL1BN0DZuDOFj0LVwo4D+poFku9lp3Is/jtKixNczA/QWaopv6FYngvSXuO0rnxhxfDiuMXDIUsyOXIQiNbsKPkdFxIlvSVQjijX/wjfujQJd7/BGoxYKFXSMVY0ZxsR/Jne4ST7NyXzZ0NIXNyaXAOjLZLxBkOZ5UZgHxElhSB70I+Aqkinjrx9V1Tjhr4ZH1XiOzQH/rATf/ZFJ3x+1ahxdqb3yN/zUuPfA8ntdrzNWd7RBp5uVHW4etNUu/TcdPMhLPGvza8squ2fP+pcSagS+KsDCUMa0S7on/WJpxOrY20dVmVjyYaRb9X/Iq/4Lnd6KuFqZRmHScCS2tnd2liM4RN6NieNL1rKYUgJ+wq94kscpUODCC4KijnYwdlzeDxrz5wX9Jw3LtdZh/Usqp65HuWq7111v6ybi2TfvfQqxh2VS9MPsGdbA7ORSJaHaaLZ0np0HmL68+6Q9JUKVSap6oDaFhZ+fEoTBD/GS+z5uDJTkz6oSuwwNc7925GBv1M2RKqDy7dZ8QZPF8LEN4rHXjn+spy26togAq8ZG3rwxa91katJMXaE/ylumwRb1XScX74qzMn59sEauyXMpNEL7kDGGSTlidPCtAbUnAs0oaWzRHCpcPwKs+jHbacLnhhX83zmYAUYgY29we+Z+r8KI1dYwSiqmV+IDwcm9v0++dRfdUb+sTQ7RzgjzFCfim5DryDoiHaLRO2cgym5xdvPIG3Budc6FRpof1uaS4zG6gNfvntaCwtccd37nqAaItfxmn59Hu11p9yRel/5ifhaxdk7jikxYl3TawS7i10uELLtlEPKuGH5U3cmji8ZkCUqVLnLTalfEVeFpnI3Li2YcJQ9EZcvTFyoA5RTvuFMcn3c+Apevmee8I3cJprJ9U8eTzG54dqbSsIOx81zpe2LNAD3fjS3OpCoFZwzXkdZ1DP3Bw39bQ//2pu8dKs4Kt9X/O2rJqRPP4Sel6Vhk6qZCUm/zkExf1G36yga1HPLP4w5/cbiTSLedzgjuSMDrRZt9LChNf0PfXvU1iVAvla4kuP5v/EN7eXyR55L5MXiMFOvKb7dJGsgu1u7q3xYPxU5b7dwW9LlZoRLyZQd8pnndw1Zl0s0OiRh0LUJPD1KGiCNee7qqSBFK8UiDNPx0Ovvm1WOy7L9crgeTkhxgrWtQ5ikZbTMnPouJVyDYt2DF9Ai9PPSFn949FKjHWc9c8pa2C/GN06FBSxLedm4MsVb4gdGcURBtLnKOaEUFyEQ7xjxRzBRG6c5KpI1c9UXbjrHMLO4NBcI7AZQXFBhId/l17J/7k0cWZ+CXXqIQNnCWbDfkCYb9pYFDM+UwTCDWrj09gGC0MnMz4JsXTuLLOwGHSzNZOh/vvqhaJVURRS+wDY8luFXhO8XLXJmIm60EXuTm+7QHTLm4pyceat2/fRfbVoSSbtbqBdh+sagf+6i+kDl3pr7H4efIzLb6Et6m60LBhKl35f11Vq6IWsE+JUa50SVuoHAcpwIlEdED/Yj5yUpRkIjurPRKjczH8fz6WSqRXFHlntwRgUx1YuTmylS/zILOq/TDy7JjwjsrJCiipd8RgHIziaU6DhjzOn1nyX1jh7VvwxXp2rnOJwbrONbGYzqX8Iylam46ZQHFcsudwE5D/E6De/D4HlcrPCAgxsXn6dm5JD6zmVEE5+NZx0wILZ0K7zIBMBRjt/5C7z1xds96vtzOL8K07IlQTeJoEqOKYN8sS3oQY6RnpbN+F+10NL8LgAx3UnVdoPM5JYUKC6IOD1ND3GwQJGOnkoRvyIa4n49QmyLcvrw5gzxZuuZILw//oUoJK3YgerluXaLbHalkixsvNI3otWNYIZKvUFibZ7RY+G6jdLly6sDABuxc36PNHEu9A5d2KdPfSfDY+d/xdV6vScHnaCXfTQbkDewyA36NtbhYKg9ZVqkpORfe3nBpth1xSYZGMmltf1UzaSYcrqcn0Xfl/xpqW6K2S9wQBDq7pXD1cFchsgStzGwEGa5qfXwPerTbZjdbIaqSt1Cq0FP4/Gq1rH0acNpDMk5uLIYFsHQCEJd6g2RJqxneqGWN1Wv6TqVVEcTFEyEsV1nBVgCGVG6WDvAhOO27BMFzhTtpnqQ64ygRkUj2jz+h7Kq5615Q3YvJPP4FNW8JrVDS37RjbiQxq7tTbQKYIosXJ2Y3Sm1FbBAQQD5XL786AsCE5Xds/t0gbdEezviMjHQyyq6QTIAyl3H+UR1Uez2j3CdYQYP+/Ie4MtM7dd/lm7/akGikQZ79Ici4JEP4wN1Y35AjaOEjBXSx3imUefYbJuwTea8s5qf/ruQqsQ03BeQLsr1iB8RfBj11lPnSzRn8ma7PWv3PYavbuxhr6RCqEX1F1I25QWlv/+4y4LBG0CauVCaEDJucWbM0nPu8w8UYydaLiJUAJxKY2SYdUP1StJOEdx6YcU43eaRu8fiuvIjCEHeSQb0jNLVTWHICOjXjMIGTgy0b3uQh8hw+/Tizzzom80F41/V8p5sVSXDx8LQs7q75RzYuFmbxkIyKrya8sexONsOM9jqSaf3cLhcBTwHDH5r+bL9PAIjddT0jLHRnvxOd9WL4/1HcRqwUm8bjIvXQu6+Q4I3WhRz2VfZpvBtCdJDVIqVOVHsn0Nhe71bClWwUZQwXwLy0REsyi81aGiCv6epo+eWJ315fd0qL07i/+HEpivL125ZbR2d5mDV8NDnEvZGxbukhHyjz7SVXkiWyS7UFil6pXOmM67oRbM9z1LyoO2GypveMOSIxXF/4Vd6fDnqmhcDUD0NXTfRET1EBVCpAbm7EgQzO/6Kt1eYwCsSCmEkZ5WHOLT6nAog5/6VmpP+Tfb3xRBMMciip3AYOSO2z5P+Dm1YpwqHd0q2K9xlprV4NaCpaUVW2atjYT2z0SpPtnX5sepo11zSelEOANz+MRy2VbXrOgsmA29L5Mi6CRLdy6dI/2CuXTWuangBfBoGoXriyERLsxIPEnj4NQq1ynRcIb4Al3QU97QvqY/A0OON8znxSKgFnJRdVVgSBK4mmUVwJHq82ngdnBOjcq7PRek3nsoAuYw8FVOTrkyzhdPrqEas6k2cNm6FZBdyAYlB3+z7l94Z9ke0HvuDTGkcAFBOk4IkVtYjYYmYxE+16Gvyrdon7peJa2sf234BthY+X2ECn6pigXAfGFIudCG7mYU16npFjBFW9wT67GAPwVqXuKVIGEenaDyzc9sZ9FRf8tiMez656N1UcrXR2nmuwwFn8HG0DLw6pIqbSQQFHLLRGocmevmINCpvC3WMXZVD+YRbvtx6cfs9/h1+RDc8tv/pRF0yMmDwMsSTbkQ5toqiPeh7KKinXXuPmY4fnyE+OttrrcMAlVGFN7L1uwSffiFnBtbUVUz7AgfAcSJRO/oAsdl8OT8mStnNp0vUVgsnkl7LRA/IAr9+bOVss3I5CrLdPauE7bc1MAupNOEHZkHtFmXb6x1dznSBrTtK5ePv/H48mWfC/P54/WEzEWkzvF3QrV1kvu+nZMwmygWA+sbCTqSiS/Onp7nnWHsKalfpQJKvPcJwlCbHC1cVROY8bDI0GizSY+1q3kx53rixa66b+oRslHAOfAbvfr4UgxeRgUqp6GvyBWYnHBpvf+3FDDMGgzF9IPtVcyRo+BfYCAKokJDzvBR7diYyvae2MZUl/sk2UOn8uIwygog5np5z1/CFLGIQpaldJ6ZxbfxMjljQtnlPlGts5JUNCjuaMbV2MRapV/XSTilloZhb3eIrJtrEA45wxdS8ritjMW7yG+Mct82Z6WrlwcClctP2WfUbYqyQi6cvta81E6HuM2XjMbWwghivhcW9U9gd78n3RaROgAYtgJN++9vIZItI//XLZqsL3vU68jEGScUgiGQIY/Iuh1U2L35/gmJY4bFXyB6dHPvVUiqgvsFlH8Q6A4D3DjYCUtVf+BM7QUbFVZIk4s+v8dowL9JYppCrEyKxR+5rIUi1vLKKOl8GVRYXRB1rtWJeYjCLzsGWmuk6zs2kTeMsN+xtQovGtdph7RWnF3z3iynYGqEzI0KU8LBEwbhSU59dVxlfqTdTfshh3KRD7zYJxrdFBbhlF6Xywve0hg38DreH88jVqnyXSiTD/+PXoJiPf+OWAbfiaBpVxGQWSZYrJtb6Mo6P257tBYsSf5K3lUODg0Nt4DF4n4o70rSO/S8PQvS1CiXIYbM04SiQaxeVP6bksAhFkCm3uImTX0gSzNR3LbZbb4H6X9gZM4ceMGwOPkjzSyMJmfX3deO3E7+boPpLky6tqgNOKXcvU/6wtf1Al8r7qoGw8AZsgHIADyRj1zGDjT+k3RAKAHC8I6d4j7/+3LKIeT+N2sRALKTH1G/6shsu1uWM2lNoDKLSxzBTxpBiuoBUF+WgaYSKED5/EqZE7qIFbtTYD9cNmq67d5l7vezfpNH28K7QtKbqm0K5+FiOBfaksnxBixLw+K2R1oc9g2/EH41cWJPIoQK4xjWN5r1jY7hh73wzQxMs3ezf3z7/4zt5qd9PlhUoSNMdvlSrLs/ARYFxFDtf8jpwZAcfpInZ1QUgqdRTxNjjaTnQEpndnKSMDpVkrcy7WFmmd9cbxRjlxlKkXV3mji9yrJQ1lTRX6R+uavGa71axInZpukeCHqXBFKPKZBodcF07QNkMzFCLHzFPbvcTxI+UHWQtcIQp2KYgUtEPkf0zkccXdg83/aFrHkO88x5MCi9dPUWGi5ECZ6cMRHq/oWT1l/ZWslEQmPyrloc2WNmLGo9CJrMBurCc5UgZzkNUoHnzzEUwXNH8S6Ts5/0/928GH/zwt0ayPKT0vHyjHEm+vfZbiEwelo3YLe4COFQE2wl6N0lUL57/IiFsJ68J4WETtXwp4ElOTs7icRmyfyMu9Kft3gLdxTVRrC8E7nyO7RiiIsXOYcEwEDqB2T2w9CeRr0/icEjzvxTMNec+DHf4vC4KctbzaZ5dNx2goK3ANMIYtkmKUiv/QbA9l3P3bAls1g8cFB0mvCwdCaqUVk1uTiFilhlbLp5enQIr9VWdnbbwtGXDG4QOD6LHUrAD2PEfZl23ZV6lzyFInfYXlJ9Du/GDtKTxchjJt0KxD/CvScLr8NnBNQsOZ2t1x5FDboc+qxO0FJu3VSvZPUGZtIFZ9uzFy3yAU8XmmvFxzfnrdbchbXwpj4nZWiu0EeH/vIwJnDTJyU+ofRMPviGwwv9eUn7iLuHXtepM0qIGK/k+jxcA/y4299uvmAqSMJKd9h6nqi6spzunYvsUGFmCZveUKF+Kk/WJ68JkXz/BFJ8OXlAsxHt/76u1zllYwTH9GlBTu6TP0Ll/kpupa0TBf9ieWH8YPQfGrHn3XcK5RpBi1PxAv7oeLRrpd2TTlaMkYyhnxP1iODOX7FtbEEf4pzxkfAztyw4m0xuTHSjkXQKZYWN/Gb4vxrlHJchWRBTzMIWrEAwrsQbk83SrILFB8Wj22/q00+mZMG+vNfqGtamZfUF2cGBn/wgM4zAgRNTCpSaXMI7G+EaVWj7G5JG/uV7/miakLSjyDtT118eFJLOzyMQqo8M/WrA9XSKPO3p5lCJqVGu0YjZuQELHVZ8RtXiH4R4K4jgLsWPmXYmXsZgmvwfq3IJ5qsZW5y7RkuJ4U+DTTlQ4QbDbO1ylrWIIgSbrB5MDTiJR276p9GN4q8FMnNnwYCL4bRNa2uLhYAzbUQltG/MMgrYjiGvQhzDOdqAj9Bu6PlJ2ZpvSYwRdllgailQqRSoUtAZrv7VGdy3eHhNuZvfvJc9qZ+H3pq4r9WZAGG/qWI/stI8zFS0fKkQnAilCdwR/ax5vdJgji5vD6VItwUSUd4YVymRzImC7jEw+3us/TNke8KcSvmNSJt/zzdzJbdWvan2er+J9PWy+2beyyjqXjZyf1WBVpRMsW4gZ+3rsQuWxtoCy8aPuV8A8kTgFzQ4vOocNkFQwsHoJODxFWUPWZLb4NsgCLsfo4ovGtFLRFeKzUFIoj/SYH4yX9TD4Z7BYHRzk9TLCE279u9fZsKXwkmc15UQothcjkn0xntii7dsCq+WeBotVvhqQebDpA8jtVCrwdjf62f/53d4tae5C8144HIu5xkCxacsrRHxcmVUO9MeJzy56AgqOv22ghzWjOH7sZ/8HxQrRfdXhG53RhOrHILkyNoSgU2YJBCoy/fxY3BCvjQq6Oc36aLdHZOhYJ1x8LFjQAwWWylAdq7/Kcbg1HgkDPLro6Cy9JxZhUmSR+L8waOz2K9zPGgCsR/oHv2pttcaOxnrcn+Q3TW8u/jT8XRmC2dCU5vSNJizbs0EI43gaNDFEUztJft4UGd7Wrw+9uOkwgElldflcXyVYqMxCrMgoECNr1trUsr8uAB1UPSyaNlRsO69W7QsTBHa28keRPkaWonpRU5X6ui3zpy75hwx7YZNshYBD1mIHQOWcxHlCzigUsqdjHqNgnPzTwdzADGb8Yw+RBBRkrFuVczKB9khn1fBqiF7jfwNq7WVxfuaiDD1HGK9A1jQPWuOGuDxbK1mZlF9gqTWEcaWnhviOJcdJPem6Sg6LFZIWajoX040eSHo5ZmoDYo50PpOeNMT0khX6kQDogu0TqAvLQYjH2CoIfu7et5/4SAgg4x6r7a7uyQLp1sPQOJOVnaCHHXzMzSGQq0TRnVpNbxNoLs7siapN5jUZFkoLWt3dO/kcareHc+JWRLaL6n9SnPaDcST3hltUWNvICgsG+lW62LDulufUmfWJ0G8oERkYOOl6Y42llifPH1xuVUU24YUQhKEQhaAW8soFYjpWrFQyi9eI7/hBuHTrBVe5s6t/eL3yl71Aq7UGqcns330B9O2qqnl4/aF9aP0lqLVdmTNtm2C00R+Zalwv7HzihpejIi7fE/SvQTpvG5z5Y4bgdtM5U7Gb6nQLS0lX08xaM6H7Rai/c7tQooM9uLfC5oZZ1Sw0qqU8XLrtnZdXsnfNVTz9Wu3Gimi2gurhEOFGwYJdK8t2W2T/d3DEaZX5X7W0hhLJl+CDhZjrZuhOEnD0infglaKYBy5RsXv1bxrd1r5uLzaPg2kNCpB8zmA3RB/DSMiyqra6s5CAJ25u8pIo0u6vg0gIJbyS3iNiO+2LxPJVkp9ZuciOVFmAQde+4LKxSDG7nPPOS8P2QSbnfVjK1SsCOPcRPzTzsOLAiKsCI2qIJxYXEIDBvZeQThUetnZ3vYOVmU24ZhkOvWxLLT1BwEENpBQ2V/zYcjdc9b7EzXfBGus033GbpGc7ulzw4tgTleztJH+md6jIgYFHtKe59SZoRlzUD86J+P4c1G2aZPGUVFOhnqMku02LYshYO+MphWKl3mXcqfYL9ubTFeNy/qodJPnUgvawn40OfrGezNN/lotqUsMuVvhehYv3vw99wEUzOynZwYYlIQzHVuo9iwWPLkCdKvYnBMIf2E3B1pAk7Godb/zMPyifE8JiEeFaWVXpmCat49mLMieULWmir7R1FNArZ5n6FlhnAtHh9KW2YojXtyFPuRe55gGjrqW6WQHpzTWPnllde2/VqFhQQemnwrwPPWAw1hiPN9XgkQcn0kMnU9xYpX47QHiHCcHOpb03iZ3KXIWI5kIOOudlvvBHn9m5e5ePwgxNfKVFVEOCW1d3CtfgnG0eLxsFYoYewYiSzrfSVkw/l/jlDrK6dnudooqMuVNjTZmBmgJPq9sjYyUM+w8KxHBQsXeWeh6GD8bvJcWFifNklRKMaiH8gNNK77nZ135OD4J1mG2XmGeWBJtZDdr+nR/mNqjM9JNQ9cIMAkE1LZ3K8S0h4uNgJRDJh6e+Fv88sa85eph2AarMv6PQ5eRfUa1vVgjDb5jWvBQMgCzZieNmlNMzctGhIUU1IsEBsr8GlPgWxBthJXhVCcbbyPemm8AmoMhX+qz/vxwbDZ3MWShP6biBgv7wGz2qwNB/3+yezvppaY80MBptjrGxxn1Z2u39UJhU0FVijpclvFgwle2eif0/bb/anKIbc+nvtybobAYJfSXcxtmFdXVBLplVWU1p1FKnYmatbz+RVQgTXx7KEnaqRp3c4+3Rl8tp68jZ0ihvhAIIURZ4B61w8NkftL3v1znw6ranSxQehElV0kiXax23qxOF/+Kejtjo60gjlwnp7p+Mp/5MMO99kj3AF6bqJM/CUPDN7M4d/+NGfyuVnJ/V5dax4t+uEtOuebdaW3VZRrT+5F91hut4XCPg5lTuOIlv8T53Jmh9wd1I4aL8ygreD7RdH6Xz/dYU8BU+hB/3rxt8czcj51yRJ9LRIHAt7qa1E5E2CrJT17bKUbQWdbZKIH9T3NkbLXHACpE4HALB1U6ce/Sm4D966zwl71vy72ikzohAlxPNVNx5k5tF3qqjA4GJMEL7z9gRI1pdeUN3L0tEN5+L/BfcSSG1nmXiEipDQu5G71GZi2eHXl9ifWL2Xv7zgPMGF+g7cZWFe/DZdskz95t/DI61oFBHqMqA9vP5g6P7gdE9AR6Dcrkylo2TrO0mmb8aRKDfkpFSv/lF8kG2pc9euMq1BR6i9Y5QTget3nIezfu/6gO/olBA0JnHEeRIRJoxGSiaJP9orCQsbutjZsVQ3Aa0vIiYE7Vd8zrog3HLwr62WP1Iqz46w9eOw1cOs/xH1zGeRhQ/wbjC4qOR7joubE0RB+wN/IqrKC0YBB0fkw208rdyDGviii/1pgf3cqDYumuZaBtieKbSS2GNzkObSsG4O2zxbFcRwTM4lpl/OO+nsaAMp3CWLMSX74YtrSKPKRd8n7bMkePrnDhU/14v3XoIUd6g3D3tfFie+4L+ZXO/NC4p4i4TV9OqwAD+3W6f/yp8V/gmE//+QB/r9/n41ErxOzC/mp63Wj6wCeutSzuPbFM3nwzuwT1ufVyGAbrLw9VY1rzSvnXIStqaLGS6qqx3bMgZftUyUNG4MzV+foFWajvcd4q+TA7k8ZkYPwkvl9eHD9CG3SdygXXwTwJv/vtLk16tvMmWXLnWChyIaGxa/xmAsqwpMUbgJqijU4sI6KMDHIvM2QGn0IREXVm+ox9cp2PZm38XZ6ENkwM5yjR/L9KSZ3SiPAdRvrBXzEFHoQvzTywOuVeVRh8X3WMwKXRMhqti/qIySlhBoQz7Mlps9FLFPbBVzU39IpyLZWlFXo4gf6oMFSZeqas1nOfO+df3YYK6TBRim8gFsDZxIGvizx/Ekpm3gOwK9/8cYWfdjapRcO24eCrmwhqG0DkJHP5xnhdyNgWauiXm8bfRTAf+nZ5AS8+K0DYiEVAe3dRTgoLLeuywphbQrkfC1s/kJe+1gtaimip811SPLJGF1CTfrjmVCVZ+ioQe3FsTw7l5fXL5KjrQz3VZGHeiUNG5TZ2BCmUQAv2pM0dyxAHXetf550Rt5A5QZu31rrvfjF/sM8K72Dr7VxFdmD3zrR/i/cYzrasX1hKyaEdH1I+5jQkx6smpHckv8rgs0+sqxHd1skG7IK0iQ/BtKQb8sMyr0Hsv/2LaXCfKF493Z3abz6FLlIKl/FdLHCIpOYNEssgxyBswtdxJiDoFE1hehNyZMcG7acT8lZD0yLExjVoTTyeNpb3oboUX6t0JgwUPreivg60RGNmHsF0YJRf45RxakOo2t0gn5GmUhydHeeCJiai6w9aINZ9yVWaqU/R81LCGEwXPisq2kl5mFdxD4glrcitwEhuDOMnmpF7y2XWndyXMN2fE4cHGy0s9ZjHVfGBQ2UkdwNwZ4eFnkhFdbF2H/c+Imk30ocjD1+YSoXeRKjGrpAE4zzgMkgZn9/skN1MVr6t9pRG8eEFO2U0e7Q70vFM2WjkhyUdfpXeIWHxQP8VbPGEJTWRKJi2kf5KTZIa7eR3tjd3V09BJEzl1LENz5Rq1V0UmMRO9+NBfNnAJqw9lKNvOsCysiC0FM3azwtf72p6SFDtVRV9FUy93bGqfZGJVWrNjPuOoUYhbvxJPJy/ZyZTjFPOQsm9vQk3whpAvfZsj9OOfvGbYgj5Q2LeyFaqPNM0lX1AxxKT3VAJjVB9eGMto3ykn4ImycP52WlNPsX4EkHETHpgbZ3xzued+U6brlsRPX9kIpRV8PspNPqB3DucuxYvLXJWym/7qXkQfnDMG3FILybt9owUi2OeVHPxqNSQ49Nr5ozE4kGzOXntB5drow8SZBBcANZyG9IacEf+ddJIBjMfT3G4OH+WAY7FNDc2YM+d708lmEn47jWLmB6MfSHub6Krgt9umRLnp1RZnkwe6UIVQIGF858Woslp2YgbU1AnxYjfO4Lcf/IQuNGrJnK2T+IzQbp+S4Aa6VmoI9wHng7c2YRTxsPxzO5r0NdxmlmjxretktxcGGP03mg2N1cV3pSxG2GyLOogeZlL2D7mMBQO9rWmB/HaxFs1Ys9Hn5cWtsxoBwyKEQI4Zrq4HymYvOoRTg/ZzF3xMyBEa1RBKu3CTQk07iosJOVPUOCHwKoYpeL9MNZTAVnhHb41SeMIxtYWrtN9bbjMkV+Q3rrST9I5yiZg/mGmYh3kBoetDnUDHBtR19cvLXQ5Me8DcL4oh4r6LWXjuF7b4HnKmyzU96JCr2UpRWOJ3VTFKch3YS53pBuBpEQ/2hIAxmJQjHbfH2jkmWljVXu74XoqBoE3gruoxYmhe6fYxtrY2gOriubdkB3iWkmtXpQ1z6pixX9oOM12/4DvqBvb9BgMkiUJghDheAFwFrYmFNJHQdawgOpXXgTk/mVVUYW+QBNuG1LSG+N286Yw1VfjrEfkcq/3/0N1zSU4712GhTqnZC3I8Av/0WzD79hfB6h6QdSyGuywbUZmsXRLf+T204cs/bFQK3j1npnGBAMoAgcEp5/je57HAJfB7pzrURzzB1n4YKGbnZR1Ez81Q33KV1zDSCDAywOBvMSSNU/3f91wJYP6EQz8d9LyqWs3dzek9BBMN0etZP8/gT419M8eiJc2MZSeI7ZmEkyr3sG4zdammN5JjN06cmVXeRTN3d43rl2179rOM+Xtc9ntQGIdzyABCD+EeB6j9QB4wNiDjdivPNCAj/0MxEImd3kkmpqMXB9Md9W0rrtqnKBRs3pJd9utpFPAJf70wL73IpgjRq98Cl51+1tD2GbDtKDLPJRLt/mINHR1XDtCQvyvS2I5jX/hhlrIT1JVNL5qIejGXr4Oi0iBwW/D7SKQPtj67rAFDiFIctVJ2ROid8+M09yau98+OWhW+R4VuLkV7YLGPZSMUc4ab1B/4VPQ3c6a9lwKPSCRnBfpL9X3jFljr8GzKa88hWTKDaBGQSQqzWhRebg0aL8XJWcaeq5j7d5djgL8ipgj2KfhTQXD7htKGP9DnZpb6APVaJcUqeG24Kd4LOlAU+ByN5mLtmwQWIoUjLZuIO57g1JOYPSyHByeTgo3ryWxl+vl0zp/reYBzSuLgxE7Qni3HHF2ahCfmK8kZIzAJNnA47I11k9LqZuqDuo70wa+S8Kp65D+CGB1v4Xhv6rp+Yo7dMoirCiUVfmiuCstgbY3Az0ZXznUhLp2YG0IieuGCI089ebXgC52fgqk/4naVMAHd6ybv8lAmBWGYq36VvsQdRTxgKUb5a1FH7hkiESMLgUTBIkXzwU3+6vmEMDsTUlz9Cl89d2a1Fy0TGEli+Vy0ACbF2xOp96HU7begUdp3WLYJieZtnc6zrEpe5bCr5OsFQks6xl5cYSzeWDuVoQR60sg5JMRQVT1Dj7/RsJzDzlJEWi9wVyNIiA0V6rLWtAoNWFTe19CUUMeibVnU0ndNEcp2ig2cuUS3Acfz69FSfFy7zI9F0qPExedbzNOdUW8OZr8Zsl6MJvi85aFZJ3u6g8m1s29ikol487jG2RJAinDxohmsWgr9xWV6cvxRQla5ej5qnexqmEOmSsz+mBiXelKzBoyF6n5Sd0FlSBvrUqONvO84tSTMxQtMoO0OMWPKvxk3YN7KaGOdayHkSIL24BEFvp2JbFH5j+tN8FKB96DBASG/QWlylaekAnlXHWIftQLXzDdHgmKGnj/pRQvDzP/2c4VSE0HwJW5HvwGjwIstd/9nrqZVHBT80A7u1XGzPfDyZcCtEssahHTJhZPOZ5CCrEAq528fKJG55KzFmP5MveX1owXtVnuLhDFU5AzEmDAMTvMkxE7uWulkOgwMEenzcLa+cgF1QOJpht2JN5eq9wMEDqMjLOvgtdUVGl4rH7N8Ih5Bf9fg418kGto0ijB6G7EGHPlGdxm7evnLk6rrxIGd/XSVa9PSrpiuDN1Dqdk5uZ6htS4yIEhDpggqmys6z3jmufzDqZFPBgScb6xZ23GJT+B/W4qufTLMrdO4aRI/wT+syZ8yqieMPgl2QE66xiRR/O1lITHtMlwOFL4st07CD5Vvsle3bfxvGOUOGC1KxHAhE2jxpGE1J0gJT2K7I2Wa9e05z9AkQ4Dt7ZD1b7cm7aj8qASa+Byb+Htc91lkLLrarpB3ynH0K2ZmQnIWmFVYe74eKAhYECqKcHItJgHINBhkTlMgCwqAI9BS4SmkwzuENNwVn2BtQSoMs4/cB1QbAreBaqsU2mU5uJ5OIlXxneZ7e5ICp5tdYoiAlNBtgj5p/NZpmViIvSHbfDl92qmfmy8w0LWkpyra7bmwNi2ewU+JZxp8mIsC9lm8BxxvLJl7p2d24iiEvF3qSVtXB+8NYP7N5qwCHbm2GZ1+fAxw0gKNEu5kf3LWFYjv3Z3dCWqllwFF1ivGedWIrVJlhG5IhyuHGOyeYEFtQPD1FSKfogbyMNPJs2D55wTVKSim/fnUmHVYG+/9+t6i7Aahgg/ETfGpJwGamasOefPw+lM/g9jOqNEDWa5Th7yqKFSh3JQArlY0OtlXskydOmn9al3ixjx8IEKiN5imtcinQM+99jXgAS6hGLLriY4UYdtQlqKYhsosP9Y/AaUwA9gYWE6O14komIARet6/JJQBYFBwxZFqUw/+LbwO0IcBiYoM9sF7t6KD/P7UEtlQIeQ4MpBjXgC0rVYr/aUhJ6mVO3dxmhh251hjRq825Uc5n7l9BbOYX0tOyfhyEsg2zivRc0K1kwCQ3KV0uQSsHsj1pLMIp/r/ISjEgTFvI1hSyhgib/KvM7RHs9npOdFpDsJb2s97ZxBeR9bn6qRvQ751C3mj8iZiPwOzX8iqG5Vh4qxrefgtXdqxxtknE2GUgLTp9VQl6PkEqoAy4cGX2p3UkPWspl6CmxJnJzDsDvMXlPn9v0RRfBN6UrLVdhFZOWBCZRyCUWw5wgX1slyDbZ+PVDn65vRAl+mubGD7IzZJplJpfA6gRu+OblH2/H2wiAzGAexRfacvvMcT79rTvNf2u2w48VXp4b3RocAHI3cicvoKEA4WG3mSorssVBBfB2/nmjmAW9QecesZfk/h/MFLkCG++nlrDs1EWMGt2dvzEJqOr1cv3xeyY0QQcstA3TXfn/a4k3lzHxKYYM47egCIP1dYQ3HUuG7YdU/pKNlzpwhCzZr7tbN8EH3tlzecrU9zfw/5+vDUgyTk/RrzoNGOOcqlXrSGtzOjhoZmiZ38MSdfYQJTXRcqKzyIIo4b5kCfGU5BBM3q9W9iTgjxN+Gu9ix3/yIOS+c3MrK5WhdxG8vTPz6d3g7WDrp/YxcbfWj35naRsLX7XE5HquZS51yIGkXbmBT/v9oWaUV/aSFLxpljs2PkiUhl7ZucwIH+CDqAIFSCJDlMyc06vpiLWssSrPYJXSOlADPgoeK4Pt3x1ONuB2t4ACZ7Kj6TrGQDTn8/uZPrnkAvOMRLu6onYo0HVUXsAiGOtjXMwyuUt4S5YBH0kryb8oSlqWLGWREgE2deSwc/DzjvZ/o9oDECYLAdVnCQYRSoWpCK1tpaIhfZRfGN01I3j2ygl0tgCD+NdHuG0TIuB6glsUuWfNLyfUN2PoOfBQpwtJf3FgzsgKJeLycYOMASnJMXwJgS4dCJEKsLvB4gYWRo8s0soaUtrjJeKz/VrACj3emYuET3czELDJy06UUgjI2h/scYX5oqQTJDVTOZgvrgP0aWMnC9kIF8s2JHyCPIyABax0Uz8kPwPtUhfWAY8dkXP+n81XgAFLvX4efnmW8/TfNOAtluL4VxhB9e2TzdKvkXzmy+scbXxCcG5oFLrdmxbjyXSEUVG5Wnam6UAm7MKEvuVwpxK4i3YBdl46mTvM5nXg1eDLtN3tNc4Wtqjrvue+hnyWAG6/DXmiVU8b1AA+WDUBkJoV9mC4RnxCHtohAy0wyQ4reoCowAlEcufr2KX63AvzQoJjeje2RjSdECC7GwIxu8ppDvQ3TbHnNNmYgJDbnNRqtX+xrO9zQSC+8YkZLXvqphcgAv18QngZW9vYOABn6RgNUAE2ABFOTksItupiVb/BR/n16PGindT1MEwBNemZkfqZbCpqygWMnMxdqhEcXAqgJd/gfACX/Q8W66so6DLinlrHyYHAbdNCPcNujg65GpuVzTAXP/2K3o4047jouhe5J4QTIf/c4rityPivoLB9DH4q0QN1W4XfQd8NA3VdLXGcCzfdPrOkPCO1S8l/ACzFoHsdVGOJwVKcVIfQPGk8w7wQKqf0xWjN2X6Wbn9TX1rv4LYNUeWCNizbeYhKi+xRXXwiFO/CllbEseMhMoWt4Q6/hyWddUdJx9vnLFedaexug2d6AhppiTHHR7J1LV0V8hq9I1iBdWqXecEaJ9JMHRnBGhOIohDccp4pAG9+6tApCh1kc6+xWFTZHW+rIoj7qErUO/+MCI7xrLhQJzBcFlIARNgWlNGnmeXyhYBXFHtpLBfnEc3b1LsAFcSxVjwMC0uRl9mJjRA9hSdoaSFcjZ+VqPJIDk1a6SEzVlTRT1ftvtz/XRcME9TSehf1rf6CaLLNNYM8Q/Mz3K7QqErg3UfDITtLgHFH/hquMsFzImrphs/MS9V15lrbKubwUB8nSTtP51q4Qr3SpATwi8reehXilplitCg1kT3eewmLnxBqKANdT2KOt1DRuV/a2yS93R0X90TlNKKgszvSno4TCGbaFEB4IO5do9LX1R/ECN/xzWBYbDgSwd9wjQ0l13G97iKXxx9bY7++8dyI8U2fUCowF5z8r0kNcDHUsKIW+ybb6xHmlfyVSNz3O93R/nzfwyqHiBR3U59UcnGopPzumRcZI9aArvoI3wzfHFxFx5N3xf2Osg6U+SYv2AwbZyZYfJxVuiI4gCmN7VDLWkSxGw9nm6czidRpjfCeUpT1U/mhtuwEX3X22/RqeYMGVUnFRrknzLgetTPxpp8fXd/xf1otfR+LfwDBG0UsbFw2BizcqGwCHn6mYUa5eySlxjE1R0C9O1jlLcaso3WcSq6mwUPDN8E1pmNUq8LfXuert2/L9pSOXYvDIA1Q3qY3WdlQgYQs21zMw9w9gWOMFayh+CTpSeL7SBTrDR1GnH9xQbJZdzSZmRYFGnW+FDanHLv5VXWaGczmEC+xzFatjoWpiBk9Hjt1Fs3yATp4KXKf9n26H85EKIKnZiHEnog7hAgIEA2YIEUtE01blcMdwh6gbPzb5j8IFGeuro3l4Cp6Ez6w13imjIDTO5m0ayG5UVFPj46J0OX504IpnRS+AXykZDJewsCKpiZFQJjDAd29bwd5KRoie80ujaHdB24dyPqotqYxxyDomaBXJBIPUmKOUWGlmGWtNHPm6ivcNQ0M2dTLpqRLhP/NXMkr3pByxs6lBU21EmddYGNNwkupGZbofrJ4ay1dCDR+6YUitQWoMuiMDdj6lQXRz8mozKGTgYRcJOJh4uQN1b7jy9QRZfZ+qydNz3zw5ei7a7uoI+Awek17GDmTQJmNZR2SIcdQEePNQM7COT3hbcyt0rUwDqAS9GY9RLsVb8dsMLrG0coBXEI0bYpOW1leO7I/sW+k7qzq5HLU8BKaULKgtrJyw24D4PAz6f6KyqFYXrzWKgVQMFs93TWTEzYmqIkvo/9UPCD1oBMVUe7esS1wFFDy8Q+Y6bmEifVn8Vk0BezHSYffFlVWL2fO8aboJ8oDjOeX3qgzqB7m08J3rv7J/pcTRlz3XDsh1Q4ZBtNkgKT0TKqPUf8h0/UJ2yiGG9ll6l08prNjwPNtENn3s11h/j+q/F6RXOvp4LvpN5o+kJoATxv2aJDhgToMSXaEkbjacxjUwQ5Ls1esLntEoLprxSU4lE2DmrkwtJQFtoVI/n83iihEbP24A6QejnHHFVV4UlHMHthPKl5YA0otGQIcfNlbfxa8rv9hDwREtemwhooKtrBItTnb3klvzdVSd+IKpsJrDX07OwPzDAWuQq93IirF9MBosaOK+T2cheN6mzjtFj8AjKj47akfvsF3/C+D+1j5cw1EnnryHgq5rsBaY57FXWNbnDZPdBAPDkGEmeUrlCUx+qxvWFWlaftjbmczbWja/EZ7JfM87wuf4p3yDouK6ErsoPjIjZx9MP/ZiSqf+L54QuAueavbVp7Fl8wXXA/uyBwX/K3f0zCz1NELOJJra+7J3MLqL3NOOiXo/3Ye3QVVywaek2L8aYf1FOZrf2yt+9vVHicM9OToC+1VYIdf/KShisUMophHS5ORSZ+BoW4lkP+AYvABg6J69OeV5JOpHSATLy+GOKztXFXyvqPEcY11DFXqyIfdDYm864hKmPWDzBbxeSzBQzQhkFStmolETzzqr3+T4gs0N5owGwb7QRct1QY7pcnGPs8tRF1eP/2C6v50djo9990g1Nt/dsLya5YZhyhxkjUyZSGcdC7eNkpZ4bgU2A6nXWhmZwX6aERD8F9e6IXugay6LcPufw4Os9HuhNv1aWaW77A6mef8kxk1yJfcvHfULiIanyLcIVlZ+zGC7AOrifw4NFP3WJePV1htIeA00RAUgtd48uW6wMEBHXyAtIx8SocjwbIGLxsnootPemqOkFmtjC6rsiFVeVlcoiaoPQ4iyo36UboC0d1CCVTXlLWp0qddsxYEWILUuIUam+b28nk4cMW5O+OB5dvd5Wn/+CaYr/z9XbL/sD1IA+MhE3Njjr0IxzcBDsG1bBWgoFMQEU9oNpzr05j3ILphib8HPRE4E6wAvtAnBsXAxQgmfCnZCjfQ5IzHo8to0Y0jl7bBYJ9iuvjiJms1xx0j4xC6QE+pnPjoA4LN4NcxHoLoQZqGaUToctfR/Q4yZmfiF0MjHarGHY4Nk6Cvk3o1KWvw7HuZmISM1vatR8Es4wOfqwfpzqx/pKZCZrl/Y8z5bJXbs9xOErvv0rVTevC0IEl9i8XIwdEopQ2SadydTftVgPY3QssxGfaBBNRmmRFWZ2oH2NWfftK1EFtyiYFds/CApHD76Q0d4huBCu4vweqI0Bv1RicEp7KRpZttPUMGxT+8YXg44MvUAXL8PEu6y4jK5rpCyvHAM3OFA9z75RAlX9v5BDNNyLlechhecwbMfIJO3VGf602kGKdiq8/9HJoQ18esjEepcQFE/QYno9cmvMmGtZ9P2Wylv2LxblMwKjTMcNc9V7fRWyUHiLxsFmRY2klmk7EIur83Y9Qx+iP7q84Vu7tHxzl655AxfqBTnrOSf7ISyfcX949h2pBOiyjBEctVeNQa86dboHJpuhZR2IRp1A1+HRiu9V/AUBeD80ss5noQA3QNaLQ6JeWw6XtJw10noOFON+0UiD4/81vcBnZOmY2YSFEi99PjzX92malYD11sE+Uc/1+5L3T+dQukWL4Rp3wwixwPgcZ3xdFwYEiwbAumpLl0L7XO0hzm12XqZ2ylvHBqAdxhCuOSeZDacu44eEKOntoU5OggQt7cuWW49QsIKsn5QbmihEbCoFHC3q7lBtadMX1GKgvbI83pBxlFdA58AtdcLkD2zXh/i88W0of2pGHXYeJqUfehY4KZ18TJWmNE6iOIb4k+Cnx9JXPuVJ+DbwH1WxL5iP+YiE0gOgGUAXTueoLgT4k+c81kURkKWKDsQmDqFyzupcyow3wddDJSDfdvNCGpjxISH749ZQgNRW4JYK8kGqqG7lrAsDasg7kPvQ0InecH62iyZr74u8055PuFskMv9EL1EiQNFv8fMxLHfTm3M3fETSGUuAPrg8RQ2vnZReGPWemKNhapoN7EPpPWMY1YEWjX1mm5BmDlDKVIi8s9fspKNYRUTFCivoaPa3b7yd3LuPuBVinTmZ+BH5YTNV//Kbs1eAf2DtJJx+MLnW2iVItyrngXrM3IDMH5goE4HVkaW19Zeh8VWvb10zEAkSeVDD2RdMcwDQB5bCXAOK3Ox56iMOn3falJx6vFkKYt/PqRDmqN2Eh/reDQJHylbfJ8rW5Vbyk1m9TAu/O8PeXG5/ueHCHeripU9iFO5pIJhJwcFyniu5cdwahrd90AUDKui3GCROpR6GFoiMHvQO9SPcy22KDIX9PGOhI5COclCjWRX5aER6awbLQWJ57d5YA7L1tuMJQNIo2Bq1iCQ23ISzFg2+zKiHTeqTY9/8habdgvWF02fEcqWH/Lzy2ZNYEo7Wq5GrThiWC9RzPMLVkYnEhMOXfY87Nb037IqSZPJ7M6CrlNiGp/fG1tcxmKyzNkHaVYd6hW7ePDF0QjLtchx6sabftQ6EjmZsddfp0zoS63SSLhTR1cBe65LTXKq55BPRLLmf57LfZKebnEL4eilvVULSdJ1YXEGOo3Uj+FkvDat+2r2/AzDOAIGWeew6LJo+cvtkfGuIe5LCDjvWJRYdCAy5/AsF3eJ8foeS0lvkjOxj+G9RA7RfJgTesCuiDwfdxJkRu7CyJZTXz5r8ioznifSCNLbWDkHFqsmdts9d2H3U86uGX03R1LdaDymtqQF0VS02taYyH364EjkEVbGjnclqIQcWtLO0fNmkQgLWkzE5NkiUq89MswG//vdC2aJarBIFcJfKJfh7mdITSeYkCZQQpQmkx1L41knBroGIm5T9ewfGdCyojhX4uYTCgx8rebnA/3mqSQ/EhymKYg6B5A8FYEhirWNeSxxS8rAFJUzT8jRREs0r2zI511iInmW1by78fTK1qD+K7YCv3NSMJFATzL8k4hUsvzvpVp8aaB1GxB3gDZQvh0I6Z1jIkgqunDygHv2BOZYJen5CjnLzMntEs7QDWK1Jr/B3bMOZtPdh6lW2gIPWJoSPmvRgk2rMjDhIVCHSG9HtsuAiRdJSY64YMGxs9xpmamupKC8CRV6NovoVysVUqFkaS9ZB5/oSzKP2M+hRTXmMUPTH2SDPPM2lMWHPf50YcHaIdW+ou9XID9CwtktVDGW3O1fF6yBEcCKTOSpUKepyxzlmXRmo8K5m6p4Gt6UDKXynB2igUqG+ju8NtfYHOcoVh1M2QLV6NSKWtZj7S7Lnjy7rl+FLBHaDeYJ6h4L4gaYAZHYAHep7fZ7xPvR+Tqarjx0DKTQtzNCXPFD8L6qGto+wNoUPNQdif9/8naMEULJsWwUGqHw8XBRt61RNsjEHL3Hw6e23WMpT6/J2IqkXCq3JWuoYFbGaMy4DJr02IVf/RLDZQnj+tFAEOwmVyf6k3n+2V8P4VFxNL4UQjB+KZV+8WO0I6IET4kOc2jkJrAcjvQNFlE9nU2G8ffdchb0GEL6ufa/jtey76Im7cgWfB+P+1lkFmTIDHH7eToUMlkJyKUJbJ6R92oUuphRlNWzJiY8N3GpcOiaLphPjj7MXPuhnXlc1YP06dI+Gz0bdAEQMGZZT5WIrpvQRRsp2S54+C9nscgNLH7ZTXBQkT2KaYKZM/3hwlVXnt5nbPOBuAl2GZ/WXo4vCqd13WYQocEg8d/iS4bgbDhsKLwsPQuOKMrqoMqVlGQbmV4PyCLAJ5j7Ef05hXk60PFcbRM2+8UaJLMjo8m0Rp8hYj4tYGSMMkj2ftPprwigDLR5j4EVrAnE8qEIQMvpgzRxbiA/JHLKx09M8IvbOmRs2cFrBi3WXLBQjQW30uwSQ9Z0pk8uDI9hZGJOqfeNZC73GxL7OzvhESP9LjNdYwo4PzusWLJ0YggfCmyDUeJo+HSOk/au5gHrEAbzn5qIMzCunvN6bycHIhv9+Ok0BwpwGz/OnFCDabLdL4ZpLrnHYIdLi8w9KoTR//zBL5fFCVwSQuUqNwCn29fL/pey6JJnXuHrH7vuEfeP7VhglmHZK+B6I+v9IGvGrVrEOaBxZleZsOUo/72VFvfJQNU6u/gXuqVfSzDdC61+9N2Z2HdZEN02KbCIbcvp7EJNHrILIFHoYyQj/8q4YfZR1MCh82B1AGsFkRyaFXHVS/Uapgwiw8+/Uaw5rp8qOeB8Bo2bVmnEel+Npa4nc88Q1dHR5F2Zj+p6yLZn6C+qTjqn6NelSxnEzeTrTeMZG9PukbWsEwPJOgYQEEGRtpiPcOvTog0SLHB38FXSzxDATLr0tKR0dYvtlFczIRPeEBg5Mn3BVUvQFU14iai3LV9wOl9Mn9fXX8oGxFGwXDrgq2uot1Knv/oBe+b0fVsdLmyq9xQyRH7TMG72C584q4WH+oTeuOLlToFbswdEQj+n00iGYA6mHV2SnTSGN/uJ4LY4AU0LGeLLB7tck0m5PfGnphQdpXSv47N24LJndJLRp/O0CGV3GN2wv0grg1H6BryK67ia1qSae9UCUg8FbrixQ6NJeYt5gn42PTLUKKGEkF8gOL78vCM5J2EcvTeRJZEvioafBY7sWQg43Us2joK8ky1ixduojJo253ZrhKdyCjzunATSnkOhGqUQ+rs/t5l9bDVW+DeUKiiU8ARrSieKhxtM/xzZaQYWZeNf4btAtC+TngXejyLKmxmsjVJxrDvfsalAmKVqW44dMcVAYQXA+OlK2Vf7AkMFwyXQ6BjPc0Q5BE/3Bn/97/KSVb0KiwaQqvLn00zqzFLIQuHA2WX/4YDAeNYgX9HeP9N4dAJEgOUdJyHeYMq1f3NXnwiwPpwQx8frSKA/eoniOTzZ3qFxXeqdwYOmpzRg4d9U58sjw5/GgUIUzCJMDvJILIZv8DrMWlyoh/fuSzZ1U/9FT+YzwTluoaWHXDihiVSoBmUjU9zvFgqIA/NoKul1jKX4IpvC/RU0ug/f26UqtjwLJhR03z1whcV+xyfpocZuUF9GMXdJ8aGqJ9PPYNh4SOFCI44FiTviIkb6f/H46VEDhyQJyTxD4ytKKFWcXSBBD/BqWqA20FeYEekX1z4p+79gh2GPfjQOGQcfJkMPLjPlYZftyPA4Xx3jNZisbzp49M/OumuFaWtxC0DdBcwRqv0U/G7BKRfc76GGUlbrA+BuQs0cN40dkZQohhS5tg2x6oyUNVK0Uw+SqvSKJkRKpI2Fv8aZpEPB9KTOZXmbi17Mnlg64Nd69pOhow8g5Ozfze2m4eNpZu8CmLn3eF0LBQD4sT5pf3kq4aKAL+12WSMk0OTX3i+PstJmg4knRGwIDAMWvoBEr9qatR8Fvx0n+JShnyp9wwAPO1NMIyFvT9Wfz66FMFhcEqAQ6c6sPCE6uSCGYnnH92UnJDpf22I+Q+tvzvnW0yNcew1aXpIyhtu3Z4QsMwnx5KmXtjOFCzfWOFDZtPtZSIcDvXHx4bAMbcqKG/PcKrVzFFqvf5N1ufyFGiFl3TsUxacbj/gr95C3awznQDlPwAdszyySJRYW1OPqLEW/nvBal7GQ2tHUr7pLhdxoVeLEai56xMSDqqg9+yrC/y0UZsS6HimfIHicOh925MBZFIjMjgYusJSLtVM6KpPUgYtUS+5Xw7BB/epqAVkAeIeQ5+1H4Unw9wSpq6F9tpLmIHG5FSpTsEV6yJaVmzYDBCOkjos6TmZ+fCSdxwiiqTrOCAbICyl8H8rZPFRncwgiDCFakmKUrgsDa7hpMTKCxnK3uKjfn4v8lDxV4QSmugEaZCBFZqh6gf95iMn+T3iarIeiQN2FpYQ9TTFU6EsBf7dSWiyuwh0tqv5XWP5T9PVlhGTAVUgXA8QGpMX9KA2EHow4SwUg/SPl8GIH3GBCkr7pnLNLZF51mE9AEQaPX/Da/x+ncm+rL0PFtLAPSlYviQJwE7WIHiqPHhzIFjrSP9hPj3fDx6M/5hMuYQPDqI4R2WEODrQNxxh5J1fJ7qGDSU32RBASfmbQvrDxGuylv9tmRiEyYi9XSaaAckkjUOluqQ1xExnQ198KtyrU18W88QW8fAMGSzfKajtEeOib6KP8dtAzBh5pH6CrwITC4OhE9EkVj7EAaVIvDsveah5BGS9EWwKCKAy4he8pTpIa2r4y80glG1kh+s8GXOtbpKi7TuGiXFtf8WpoI+efFAC2vsWtH/KCfgDt+EHLVh2tLtr8v1MUHHnZJsNBrcD5FWZnwKTWQgecAkteDbHg5Gkv4WOi7aQgkvV0zrXODCrpNnqAhybs1y6QearYgkrtt7cihnZgSc7bb2yLkjneV6TuMg0sX/AIavqq98M7gD2j+L0CaUnYpGSV2UFX1x2N8MM970FoAa7K8c10T5j7H4zTZj9koJa3j2o3eiVOJ5wEYaWzd9doYakGyichrNekA9VxTrpw0N2TniYTAaqoXL1PZuMxAbHMsSHvKXVNzOPXtvzPNNHQVWOKbmII/ofHzVRah5YKDgedxUVCDl13s+mx8Li23E0kYnlOioraclVfNaRZKJnYdSAN8cB2K/HH4xnlg+d1PSBs1T35+mUGfnPYt5/UZrP6RhZLuwyRjliHY+XONoWf5DGx78AWlgDzgrO8Efu9HlQB54wMgm6kWOt3zK3jwW3Ev37XrQ1lygXlrDnhol2innXDSNXbZ+I4xfSSq6PnWGGwWfbDn7sHG4/Y4aH9hCKn+ex4R8+SitCyhIrGUBAzf4gIQxE0rF2LSsNZK2fsHKy05iDdIqnZZVfyHbIgR2lYNfTMObR8p2BYigoRbqi+MB/ve8vsIj7edU3ilI+0FPSOwmJDGPJqluJOmoORBwSYlBmQxI05F2leA96DtP++YYSx1UoeDmFAi/td51VmzUWui/XtJBbaLvD36Np4W07ObooI22zctCCXmm9FY3Uy8E8hk0XtGkX05IDalby756lY49pFs71NNLkOB3gXkt18i2qoScCVcICS50G87cHd+YT9BM4FOiqKwzXwEYaZZKX5JeJOR1xTP6PmeRGqll8v0h+qRTCM18nvjePoX2kIE/L+KPFs/vmKN0Kg/RS9ctKJHF+/qewLOXQkjAVHnIaqdQam4oMqySC3OjtU9erjt4uK8LqSQ6sObpOf8U5ApYki/1oq/sHFylYMIPDkzQnqA7BXJ4xAzbziS9l5G1OYl7ziLjAj4HQABP8x+KX6El1eONG2RNFGcQDRFGLHjHN9jRSJBE5x1rkEwJ19yWSPLev25DKO+N1/BUYgHd30kKD+k6rLn1u8CFb/z6y2DZsgPIjrzxaLoSs5/LXIM/Yhybh4aheBfzcs+yjuEfXEoB5DM2p2sv9IqIcCyf826xtmb56GgnD7HoQoQdMazs2k17MAM4AA5GO/9U6nfs5Fu/9lGJIy33MTQcimbe+U+5etKCIY+2EZazf+YtfkPVXmLK7dnkXns1uquoyuHxpkym+yP9aPZh7WrpFuwizc9S3zVD3GtVtC/HDDBokYrHIQBLR6EEDyYBZAmPUwSjM6Agoo3sc0eMWyXWar0uMcOA/kCkZDQx0CpQ+MayToNLE/bjL1CuJBu4nY38jpRX20SQDl31AC+KZ1jWJ6ZLp46XdollICIsarb9IyRP3dvU/p+A0GrxHxzbFlcAueQzMf3834Lafw09mysnzaCjdSGB/agcgcRXh+B5AFalxf108iHCwddOv3Td8YTC/pIlcGj0V45cH81gIsLToX/aUiAoycvN+Iriz9mHOyHuab4CbGBlYP0pZXIHTTBKf/X5EWJQ0lhGCAfaW2bJ/JOmXWCKdWHNpfmORzIg6UIK/+T+XMSWfUHBw1pSN1D9CvKL1niN2zUBdV/tzP5Cm+JwyLslybfunSB3/NbwV0rSKTEYldvxDV+Pq/5h5JLp1pXvrg27J3eeysRFTstz3DlA1Y5mVglYS44EQXdGI4OC0MsApNrAzZt1328ieMpynBKWfTfzwUIzUyGHE77p1HexoQvFOqMD+shWD16hCyf1qz5D681ksHQGAsj3ITA0mkT9v+mop29j1RVNHIG0D0C4UpANlL0ySrJ+SYFD0Vt3ifc7OsB+vCUK9kOeFP64CufvafOdLsWxuYiasEYln6NZzFbubTFclmdgbpm4asvPjrJxSKmbqlneM+P4MSD1dT0gG8gPiN0T+Mwc29q2ltpMdL0Y8SpNZbFo2OnHNgipk3uztth6VdA9uqqqSBWqPsdC7nXkIYH2BwqoAqHmW7yJAtlMcA+acQaj7YHXDgizpp3VXD9iPUy8r0SY7O/f+TnrlDnfHH5dXJyqmqit4Qxw9/ZjoqfLDje7orF+CM4/iMBtkOzy0Hcw2twPgWVFZRYL67N4xW2fVS8Mst6bRutMqZYEPId/q81UBGwcwJPQJ0eH1oFOgGBVG98HLKcqEWgxFh1XD4I5vm2BK3iLRrjLACX/CNC6lorDUHWEGWkOo6mYENkLW+932YLzqZeC/FuWv2wBjIm4SofbBk73eSnANIGKKCt/ki6lE2DVyOQDsfkak3U/Ny6BISs0mX5lJ3l3EvklMJst/d5o+zCs66D4JyuOwWixVAr1lVaNopsYcQGXke4rpifW003qC2LGdSQfsPdsIK72sNWClECRMp+Ceftthiv2GVsDBLIT4N1NFn0TvIMZYF5gXUGL0XMGNxl/na3b4DNepl2v+dUqmx6oA/zOsjf4KJxWKAVk/qEqNva+JBB8MKj+UYG00YXwOvYexmdZEpYJ/cSCnAPeSswPlKAN+GfeD/0qLAn1wZKxSSuGGly87tGswAFphP/9AuXEiooLpYSL8B1bt40EVKIcdmgCTLhYo+rxYbgMmKwbuOzHZN0EYvzCRwmG0Vgfu1Ir5XSjB59qbAywoqAC6i4mDqyMT9Z/SkxvNW+8nUrmyki4G0O5va18nRt3GnL8lFza8y4DREBGnsWLhjdWb+ieJlZqKoGjRjT6/qBvuvXd1agQPPjkmuN91x2VQth4iWbStLFEfzql8FbnFb0r+RuBEd5COXAD0k0NXAa+tXHGk3HCZA+3iEor0+lcxesv0Rz5Srb1fDskMngcQCCCyx+6qHwhrD1/EuT+JlkM+loiU308rMn6rh+Wde1iKdDoUuCtdaS0pTql9Ppx8WSExpIaT5/23jA2EM3DAtLtFOfO6F4Csgxr3Z47pI+MICNEDiWGuY9X1OEYSp1R5rmGcJxM7mDLRrThQmSbdp3NyXDgHKh3M5wn7lBN3NDLN03q4g5LRUZcHySCE8qfGTVN393EB7M+YBdgzPvuSkrYGT9cRFlTfvpJUk2C+1I56zzRRjdPdCF6mu+fNK0cNXEc0AutatkZ2zdh3tAc+TopKKTVU4pa0fHCBSdR87GdBrpsbmZ75HrxYz7dAF5koOiTHmsSXWb3hWrlHh2SGgG9imRCcAaalkjnc6EtzgGDwpvmsfHfVz982lJDztADkRJ63BIiD3PEYJyrvjJILze/HUdyW7WPSQMlrNYmtgoDD5j1zg3AjEXFexaUawqy5jwCvEGi51TxwFR+JgGc71ifno7egVGFzLDJHSsR8UVfuZHt75jUA/Tmxl8PTsd6mRRD9ulnuB4/dDF/yNlKk1BfPlRf9HH1Cv1ypFTnVqE3olUqcVG7LJXlvE+dzic8gt6F4xgY/N9ApF7G9dZmFm2DlK5B4CDFyRXmJwF8uyQxVZaWfTLRKJHdXpTO/XXJH0bGtJfW0QISY0rHBD0HBe3jS4aQkYXHEEcKQODp+mIt/UxZFEdFqgU+pkeQgzK8YWj8n7/qWm64A/oCkCtwe+vOB7S1DYchfA8lhH1u/bTVEAh38I+S+T8DkRPW9rGRA2c1INKg3Qzq980ZWVuJkwXpLYRIjK+K10fBZHdup33PsA9Kg9R9XJBe75jZ7BJolkXBpYYcd6eReM2hSaXEzIcgUjxNuEIwe8gmu6wr6CKvTpJuNo0sm/Chh1GE2PQk7Z/qmnTszTNbSDasBTiUCsO31/MK5cjTIxsJOt7nYen6rJO127yGJX0ApfK5o6Kkq2tZgKtjF71f9/GA+9wLLNv5y+KWJ3HjQFYT4Zahf+WujqZUq+iPbDMmbIm5vj5Qvcxprnm9Jjk74S6mJJIaB7B+nX/dfu7A02cNgPPIWh3ov5XGD6IVfbzHTiAVZfBEWuzQWaVAnpiiGSI/pABPX2/wJAb5H/v293v0wZZREW0s/ECd+FuKQBXZrIpN5gWEQHCWgHGbP4fw3MTXgkwdkFUIND6mOU2r7VJ5oDEeBZQSyPCoPvglnulLc5JOhR1qAoDl1Gq95fbfLa7eXnbGw8XkYXgkLTkiSA1m3ZLp6BQ6pIzzYydWQsIOXNmxaiN6JnrveLPqJC5vDpwAmOoJjAQ4JE6E57oLE03O7gRbtRdYMs29Yn7pQpbvdUYLR+oYd/cj48wtpKCqaIi7T5DwgVduergvUnBc7tJRngkDRKLkDTc25P6bAQoYXRM0m4ZH53DVKjbUAIDUZKMRHHgwAB0kX/Upctps6Ond0iUTZZSDaV9IcZ0zgpa9G7JCPjYbP2bTynXkqpgduJHceWfmhmtJYV9rFnl3yQ+zLZnt2Y3USipVDbRxhMWahy6Juv+BVscdNMLzOf+H2P/78y6wfyBpcTAtnB//TlvVMWa1Zcj3tjhwa8K4RrAiG/TBYjWNpFUjvHAT9iFykWYAMs48SsWGkEXDF8pE2VPwwA3fK7aAi3mDK4ADybf7FcSqo1aUQMFGOdhByhYjc8PhRgFuPZzcuf12sDPtCWYzyS2icRuzNAZjOI4fY7Br11RhhRXPnv2KtkSnqg3rbBNcVijCZ2XP1srdfGU8YPw1a+8LpynjNATUUg2W11ilfX9ZRLQrKWbi3W17YqZbeT4OHhgwmQFn57blwid+DnkpyLeqEWSjGwE/Mp2W4f3fIVgPRJGFShdGOzrWu74yKlmJ2i6z5tN9JFIU5RoR3FBh6DT6f2ABp6ehHpRX5k5mj3bmuIStIEfKVAf7RP/7cbAGzbxoK6FZX9FfxFFp+u81RGafA3uhSI5GHrtWkZ0CYl45eFtOm6ZeO93rCWNlDUuUDhmJz/vg1Nrk7cJHXTF/ycpmp3F+ZdeX4pJW4MBxeA+gnmRJKmBorrWa57eRgdiP47uRRj9xSHfRZyv9IT5qNoG/G7HK4pBxbXTN/qgN4k/Crwr1OaFcedrp78os63SRDDri6Onybku2IAlSf/Q6L0XDqNJFgBNJU/SJMble2yIdgdj9FcbxtQ8PD+cCGGZkA7kAjsRt1WGwM7saqiAvMzqILgOGU3NeLKpiXlVBE2jEyH5cR+bYiUoF92aVVvCulSFTtv3tHI48o5BHMNsjlVKuNpGnfu5cYMIcYzeiryxTNN1BttkFiJ7Kxv0mXJ2x0ZCTpi+VvHMVcrpMd27i9rZ/1IujLYnBdMyaWs/a8YwAIAAtK3Y7eHEcu3Dwb0fLrm2DtHRepCekbCdGNLYDfcnR1XJ04daINfWIdBoQpvSJcSEXSCZB+89ymjQVk7yo7ReAQU73IWsEc+doXwiDvx2oofC1fL6+NGCChFlrbKQBcRxw440ZNpPvbaW9WL1lnGI6OxY+1otxUpPIlLTFrFiJSWF35DUKaZ0t0387dL6CLmWCY5idszh4WgcHxnDra5ZuDI0nwmpUzaSskdQ3PAVdf85dCFM2c6vWLuWYuoi1uSQvFbVqMM0OJDJ0NFTqjtFfxM2+vVqy+EirqwMxVoexrXb8g97OUlNhveKP1Ey6JDNXlPGTJTD6jLg9jtwTtVxjwG9VVlcIaeKIAwsiheENVyQlVm7AcUDm4bJrcmGGMy/Tkdw55Q+B5TcGv1s/ZnIBWJ1NtVCgNjEGDn48EU3uvJzGyOOzrhcegyQivTqpLm7raNh7g3UQ2thbE3ep2H0uMISI9GI8XEUEamVH9Wu8K2WfekvZbD1QWeFRoJSpM8G0kq/58P6JZKIDGL4CnLzook6V5vwmBt1OyHWKfG7tGgJJccn4ZC8yCBIrRc7m9KKODXkc13SvlKFaBMH1HQnkKStOGqN0fYE64As0AZUHuPVedlpRKGM4cuT5QCqNsNgeNgo8iwvCxgf19806kNKjtEzvqcvZ9sUJ8JC/zMZimeeTM/9lUCiTvxr3owBdn0zLYHDks7NOPakyq1vF/h1sg2t4EDBdryEAmxBW/IxMmtLK6utgEradm4J7nDR5Vc7HgePMVgM0AT9KBozCW6VL55d3M7ibQQNcapUwOJFYK1OZxGRX4meLKHxYdg7OARF5ZPg4Gnn3dfbw9gEXIp5joujk9OM4xZIBMMICdsw2PtgkmR0W6mS5YsuRcJCvXIXZPJ6DW1jBKep1bWpsXkJjrPPjNuXxyeRwRW8j1er/n875yWp1nVjkHBRAzV0BeRvZiwthbhoHJf0it+4ngQCIN+Fj9zNqwwr+fsH6zRSs1Fvc01R2IFRbbHYhc+7PEqw9d4FJlueMvCEbVuBRQCJFOxPmf4uRg1X+/6oz6Bw9JZy9Z/XMwDvFBlU8w8QE6nmdrSwpmtK4u5H4fy8VQ9TGF4MGrr0YlY0veUF3UgA29EhcFh+wj0n9xEjq06QM81jM1Nl+Bi3PmAFbPgc5M52pJLfR+Ymn9h86TZEfHi4mkUiFMGtB/5Kb+7Zr8k/pi653dLvLP7iXRRRd7OrJ8sKVLwKfJWsVmUNYQCiiMbYHkiSQ1b3OQzCrPCpu8D2vZo1kvUUKsGOXa0Jh9JqJeIwFbK5FNtQJ8W4kkFP01hkKfMxd8Pe6S11wqRKKkOCFVHbP6fXA0UDGSu3fjkIbcMzMI071L3I18OxZMezd1cq45aBFc9jneRxYqjgOVXC5J5rKrP9F6/ibJolZIYDtML5BQeRQigBCeEzoew6LHn7kwLnWWIRzbVrMRmj9afvFyjKvNHE3hC1nm7J8yuZDfitwlqx9i85SQ1s/LFLF02t8OGobkT7DP6EfSA8SaVJcur3PeLEBqli+BFIzsUbtGdle6aHxWtKbV43to0NzoaJKks+UsUAMXkXxJ96XkvZo1g4YPihaDXHx/eYavX3oq32VzKseOw+3wGoqyTv1DZ1Hg6xTOLy1S7aeAu0iP7T/9EFqsgo0syph5UWJgEVwP+Xa7aHpRS9BAdoFmqPefn3mMaPxx8/A13kNhPh7XZSRzOBigVhMMGRp6IbneolEmszL9kefYSfkFs/a4VL5Ag2qAxHBMBikd1cyd7WVMYd14uPGLBoiGwleyk6Wku5SicFOUf/Y4qzVqKlhdvLEOLjvjEKddX5NjHO1OmYajypHqGRDtLq7B1e30Dj2Y7DhpaaNx4xbml2p5Il6J633KdFxe9b9EFrCqtulJi6DpYyh7Ihaoes4scf4ajU0kJlGnfir63dp7HVA/l4sL9xGX7hc3gaYO8ya9Ip1Cdfo/UpSZ+LONvDzY/6vswqbU4Iv0daqDDZuy96bInepVNb4uIiq2h1ZJETjF0GE1XpjeI8/fG21Ek81OJ1tw4EiBiRnlsDqS35TWPBMk+869oTqyrnZ6dE8ScxcVPoXnzQ5qMU2UYmiCdiaLz3+EeWURRY6k1gfk80WeD3YIMhogEn7BI1mQqZ2pz2HKssQhy9imKJQJBg7A8SW0FC6obfvJpKAI89/rNK+2MJWSbnS3lIs4QvOQkxvmxHXVKwkZO8aA3yIE625xy2/ceNc0nO8ER+z3XNwgkcUUEniDmAi9PwnizzmL9f1g74BvgdgC7gDpi3b6o6S2zqFo5E7pZRSJuCvrZHtu/VLoTAzO3/ud8boYqCGS4CLlGlcPhDVvSb4y1OKp2z9HOiC2/A+3SJtzuLG56z2Vur2xqWRASm8KIN2rYevu8yH68mPUdE7VGPVr3z7t0s54kQppoVjmtsvaGEBm/Il7VcdBI/km1dtB8OX6LesoDSSr5XckFLjbJnc0Jv0K2xFXdnBFB41Y+xyIzP1GcSQfmEAa1ZnwG+Kh7BRjOhFnZaK4TVOURCSY5LeRwtJAKjMlky1DvCy8Jwc6gBAy+XKciztgdH5SAH1v6bc14pOdRnbGtKVzKHPJn0sAsDMZ/8pXFvCf6xteNTmUHlQCKVUcvAlqzRj2Eg2l2QmVhB74fM8mAJw00ymIq0wb/Y9BODeBC4VvuhsXZ9Uiat8n0nOGSpdR11qvW83gIsvsIWYcissT6ml2OYBe3WCoNoYcUVqWO+UQslyeg0jMfiOe1sCV/XxtAMqHX118TALDZd59NgYZvz8k0cWYGpEMu6dZ0JHhi5eEdRtrdVlZrpBVdoCACk0si0thosz5ocGvG6F3rLvfwix1gGckBDYn58923gq0fuzPo96Zwqi+sjASj2i0SknuIZWdApAD49nUzrypSYJgZgM5UsxY9t4lTGlWJ9Sfw9MgaMo7BPkesZOdw+BbYjuEVXQIEdyDOo8jxPeF8+0T2f1pezpC+qDrT1ZSf/VMC2wEsYbEfXwAGlYGs1ZDt9pyYWAfHpTKj+Qg2/L6L5Me5XbsaPNud/IJzL2jshm3HvnGBVC2ex7TzK91qYuQYmX8AaJ5XZaFLwzuLIlkwT3YyHjhuPDueW2sSjRhk1GKR8302q3MjTtGr7+t2lVqfZHDcdYQeUFYrn2plSPp9r01zQ4R8ScKU5EDTuENVE6o8UO3CbfY3bhE/CynQ/sSZPYFsOxiE7MiOJtiuEHGNPy62QfD+YzqFt/HLqB8cE9218+Z+oQdd5U9tCTJQME2v/hSm2va7uPVgsK/zMCYnB3v1a5jUc0N99pFcWPT9kmAoHz/anMKTB8gEp5V6O78QTVTYbJkdSeThYGu3xKoRKC/aeNqLLoWMFk0Sd0GOtGTXOL79jirFr7VaOpZh4iUr5aZp5q4mls7UOpDCHTxx6uDVQzbZ6V7yvORXjfi+T9Kv55YimZfqga9w23WtBOAz70KHIOOAYczhoyrmmTpO13oquyE0agBf6CCtXc34jEfugIntbVWbm4IpawH7DquS+J/gWjt5iwK+6YWn/A4LE/ekPrGQv1tD7y91Kx3qJGWKYDMBVakB/tC3uPlXn7equjyTsh8a9YWPEtq01sbQ3knCb8Pgy6Xlv/gK0JsOxJZUL9fr5VnqAP26LWtUf9VOtWFzAXMnz7NCVqmRVaoxqW1Epp35X/giMIRW3ziGkGLkH47yhGZ9FGisvyXbORwSLBkDXEKEuYq8OWAZbd2EBYzvK3ctYjXi8YUJRROVPasXn20JdhfL+mXXM+LBpwS7casZAFCWrLEiP6xvCNJkWLdxPl9qtotjYHxrtxL9X02FdqDUJQdSjfHYeDxTQRkbN8C9fF8DHQOmcmPweYzUPJ7fGg3fSpJO+FWqMukGfzEZdBrXs2ong4sKFbxwwTwbVpjGNc7fFjeX3oJ40q+vGa2jVsCpr+ZwRU8pH+EqpbrT7f88K4s2J+x6NUa8VrZWUhucFcXGUi79mR13P4QN9lpwd9tXTzYVI/ZhkmzVo6o1rP0QrWRAceBWOTrnxyXz5LUKViJCMThoxA/eplUmodW+TAAOmgLK/awjh6XIABcbU6zuoByg/LihmmvW6rh7dL3xTAP7Y5hEq8S1ZNZ3AtNUHoPbfrdg7WOIfBgThfwSwyZAFmvU8Cmjl+6QHXho+7Wa+8KkR/OlIWqkpvumF9IV+KhmFUCxrrQ/0aBQtBEGueDnbxGv29yjeRV+Wm8dcdk++OuWG8N+GSq8/LDDY4ITSB+0oHOQWrUA9iOlCdNPE+0jnv0yLQ+N607eCF0HEgBUQuFlsedjsfg1XwpHTkVEjkzqRPfguY7GHCVl8b4ysiTWZrXX9PwcoMH3vRAOcJyntD8hvziC46Pn68fpgRI3KvgZb8kF8Q5p2pxNcFw7YL66jUROoTg1c/BzZXB+QcAvF95FJyjPBPOo0ttM4Ie9qaumElCelJGM+3XAFyMSJKvgzdttid0HZ43ZSxzP4jwMhjZyamkm/PXFFPppDytBli4HkZ5ZQi1LCQzEYZ+P5/6D2CV92XtCD9/O+YiihzO8zFBphYJZd3sSAcGlK3Q7PtgXR8lcYQFbsQLotQPBa1TKDuedR0cjAZCfz92KRRZ/Hj/MLqWRfb5/ZYqvEbmZmmauL2l5cygv4Yat2iLPdfig7IMYgv3ctaKZLNL/RBqBE8YcHtOWn/puCZXcUtlyRw0jxOz4zCNK4CnlxFyh2tLwI3OxUsiuoZvjxk4MGm1uBPgfHTsFkZ7Zahmjh5yUY2yVWTGdZQBe9mVvL1dIcEe2P7hxsBCfWcMFHfxeMCZKLxd2eWXu6ST8VAFpUn/nTYHuIetigcz2W2/et43REIxxUoWHajl8NrRWsfNb6D3wjeGZ1gG5VCSzBZcsYxA3oHtc5/iskNU7JiOK8evwa4GouqzDmsgvnAMn8buxjI+2CbnmQlgqLfXUmLOaDdqYL9XvmRCPUSK1Ohy6jyP/LP1N7DLAUxhvFbh2KyeGstUJ/QcXH6amkC/ULBk8aYqOV+rIc6nYLPPv+UOhPhhYs5quQGzaWg6+Wa8U2pB/toFMoUZu9Xgw+7cGoec4zwlv5Q8EWT1CrLb5BIGHlww/R0tAYtD7xRohBkb6ycJ4IGL680DvJAiMn5ttPAsfH7tp01vFf+OcOejo8PzpQLMKqNmRA94FSSNVoHNN1Gt3RtjIEhF38xK8OEzEw5XNiUiOevrHOpMSKIF48DlnMDRUDkfIvXswvXUbP5hayr3h+5omYW6cFz5XLscrTz62eDc2neCUZkw+OJqQmPJFrbMJpts6YEGj8AaEy6WOMlZQhOtiH8L55HC0xAf8LyAn2MCw+3U1Zu54RzyMIzaMHpbllMuzS5WJzt8oP1oeif0D00qa5WDhCY8RfR0/gv+a093rpr4MxhTtRgec7heCKRXHJ6anqslG6EExoAz5yGLHgxh3UKARXQCix1XRMeTRDo3z6eiysBiBH7bAyDjZmaFZupGGWTZyVl7YiUkLaFnHK+QImOjFoGXKuHO5ouz2F4xkSNCBi+fOPkasMcH514OmV+WsBEJZjbTy4gZcVGsBbR0tgV5c/LPsMg25jGLAjqiqe4/ThP4GOG/usYuGd0DtW83gHndOGE3FRvikAESO37CSOCHBcseov1IwTK70t/SGyTSL0iaDb7oSXTgkTAenQA7rmKgpbPkTjUHERoVx2SFwREejM4aCv+n/1t6C3m3lUj+CJZL21FdUb5Gx6lqUerdG7S/1uCvkH1AUpfdYGOaXTKOIcjuIHJX7lpP8U88AmDsYWT9IkzBG6F5oFASF/pXUSTWWa0ZKuDb6nT+nixa1AilsTzKNGzWtHeqUjYABna/eqYlxeNNRbnaaEUlK0ynSG9VSTQR45p3kDcJ7zqZlwcvkfehOHor7Ljdk3webuw4sMLeuPe8A+YAiDJuZW3lCfG75LqJeXwWRDsYjvKqO3ssskfW6hmMa4MqyTx14YwX/nqLegkf9IShBURt9t+q6bNhcs2XljMxPV0lWxinO/Jz4hprH+UpCdtYyaluYO2w3ZwlWu94DoiZcVxybL4X8DgeFeXNx/XeCVFGd5VNGyIM9CKr4Lcomvk2BjA25oXcqQgrEpGO07IEbg0CzDDikIVrPPEU3+H48WPo9yRevf74s8n4/taXDwfPI8nlwtAqaPP2hP2lI2eyWijZmv/EbVo2SJZ1pzq0XjGyDhSjkuUV/Jng2tBTiOhTQkKmfq4kgXuFdZP7/gM1VizU4PqVPN9ARBi3FesSRy9raFOhr0MeVwpZHPNzurf8RCiPyYdLd9YnwLOPk6+BMKm+GeMsr5K348VRcEx9R9q6M5IldpDIxbYz64zf2+KQ30UkrZzN/0J937dzvm9GnWuy7vK5i5YjkYra3kz37+QTKHZ5tujojUQmghgMGLd+CwDa6W8MKLXN3B7XnH+WsZtCOkhjoR73Pos12fB1J+9a+v/y/Lt5vSuYC6PAZRksJmDuPgW5Q31djvr3tSGJTegBHy4ecKYG4nL904wINk/VqAZxy9RSM1MyR7qyS4msl5INPe3mBJvoKvgLtmvAszm4HVF6S0GbSXd9cdqc8Bg71IKEHHZ4M//DgzHnF5vI6OkoA58ZrDY+iBfGjagYQfliTHu/nDtTbc95KFpMtQo9AxvdeDyIbenDrxPYDpeO+OLeEXx6iON0kQLMnJdjTvxDTBJlyJA3AYxhq/ez7IF9IVORP/7pwzdjhfU0Kdi4nwNpAXoPSlr+EBV0uNgt1BaEWPW8C+kcKcRJgtfOijaRN8rzOT3OXcraY0qpYrO0Vjo4Vwj6er9Dfjg3xF63XX0Ws+GehXhk4jg+l/Vi7b77i6EERlTzd8RIT7MZ19/T7tsIbs4iBjDKZEcB0CivXLDdJyo45PJcyUtW3BKp/c6DzZ2yOemrwk0J5StK7uURZ+u40TZsEllnkkL4FHitwb+A2g0rEF3pLLDu4OlM6uKJHAeWsP2KCciUtcVLOFkPKvGi21M3Sms4GIHv+8Wlq2EoOAyr5i/RUhlK0ugKF1QulLbi82hbN69iYvcbrLKYhFy8CfUTSwu5TcZafA+/5pv760a/5woKOgl5LbwPKva6E7DzaITsMQjfR77rY9/8O3I1gf+X9voxlLK0LLP64OvoSQCQoOQGomRtZcjRrAFKBESIi1tFk867O6N/bfHRHgojOkB6d2wR+4cjlewyOShp3zV1Cqvnar87lEOY0k5RpjjcEGLmP4ZOvior1vA9hSSUTmhW32Z27ZFWTfaR8VvjlVC6bZCQ2nWIOJpVJo9kIyaLi3AsZtEonE1/Snpka6pTlA7D2FbD8Js371IwsgfOht7upk2KdFJ5ZJytKsk3A90Wb80mwGiXsTeJ+HmpEQavMBMiCmAuWyTty80lUW4UFfER2rg2RZ9JJRGVFYoLLAtcTKSg3hcfYgaQv5pNhRwKgT+iEdqt5/n9L66YCLaYrdLPdRZulZmUk75iySlfG56NKU3x5FA0tNvjXtNk76jvNKJv1rAVqyhKslfLDc7Nfnl/UGxIYLGV+IQXV5ZsVad/1O63og+ue4AwWofDA/YzJQwRgVl6E923xNR3fZlQZHdG9/yMSP8ozGrZWd/DPP+YVKLX2knxm0mXa2aBpIoBj6yJCVrF3gVBlAGYpJ/n8fHQQVP3mLedFtHjNidq9B56t0kvA6HXacX0ZD7/r/HWvZqomw45+k1+g/HeRYZTn8UHVOCbIrjabVkVwxebB1s6kfUnOXP5X1e20Cbq4UKhROpAstYgdGMvT8gV+4j5V6dd5RlVvRCtXDeYEWsjfWthIRxw5ynWRHRutpV9PpmZBLMELG6s6VHZfC4KE4JBZKm2ATCgqnuGhFlbkU/k6gNdCaggUK7z4IH2hH9wb+Glui17CmpJNBIL/AGjHmhG9vOwzQh/bjQhJBon+KBc29W3W25FDTxq9a/XFZdRWuXftRMKwF3CpEBmsVFSKdoFRojRDuskt1+Kdosa1IskHrnbXl1RpwYcqK0AwnrkmilW57PyswI+fyYOe+EXNe8XVhGIUACnSAIAOE4t7KbZxyQYUoMEaTTTXv95da+ocKGvW+4nhjleVbWy95C/M87vEG+nybVf9nhSaJZBcbwkumwiBpnqJElqgUP0IsRWA9KN04RWdbvNkohjerLuT8RftFh1nTYdiYNho49dz9HkFKV5FDMGzM+x2Eic4ujKLmbDDfmu2uFwhp4qOrr91wLW6EYukQ/dhbZEnmS+CDL1bPtsDqN5C9cohAUjMPXHTASnQXdo9pAJHFnEPDLeL7k7VV9/DUMJOBCHS3Q1rv+iUPVjlS29+1qqJcPlvs/rYjJgovwL0AVGuAUx84G0GzPuGKrUysJcMx7zFHMQD6EJCf1Tdb0Q1zmjzQm1I6lIfcNEIjxrw8AHLRiiUZvfRU10EU70iAQhl52XgZOmpTtEhS9jmwOMCZmFnuRdhSCxt/KUO/JWY2Mki5MIYALTLczjJr/EUv1eanvWTtfypO/regKdxm+fEECv/WvLkkoHA5tli7j/s5fPKAadqm6GhaX95fHKhNDjUPE2t96R2Nb5BpCEa9nuPXiAmnWPaWpvzPYxr1LjMj7fmlGmJwcgODH5w348I33XHlNcZsDHqcXTpeW5zyO+/gEQW0WEIw1EKNpGtIemzUKfEdmzRe00AZidJ3JOMxLHgEi8Rz7iGsMOltZzSnDPoJHjGHzHERkaLJCf+W9sMmGqcF/K+9H/V3PXgd/fJldcCH/yKV65Uh4BBEUIRh6WI1d1KiV06lfnbayb2dH3AvyTlmig2oVflBwQ91s5MdcI7b4F8UrL5akKr7Zbin1XW1LIPcIAYEaLFYsTdlCct3y/7VeTOwabhDlSJl6ysFCfZkGrb7RtYbXGd1O8Aa/FnFIaEd39Id3Zhj4o63LrVNcV1njS81hfl7VQVhbP+vYaBgYlQUJFdlQ0NnU3O2oxQaQQNxrlPKaNX3PmwuKiIf8Otjgqagph0KZ33lkX+aK3ioYZCOB3D4MReqgbDEVU0d+h7T7Ylfz+v5ERxVPZf1gQ45mzbPPdZmQulGqWnO/8b7G6dog9mQuhnayIN8gEsx4TUS9ZD5pUvmz8VURkceAC8fXzs3aBliC/xHQrYOUBHehuB2coz9isZh0wuJzkKg43PDUt5z7l0whnV+j4AQwzGtn5PD988jagB3UdWwtLcHxLUtcR5TzYVzA+oWTFPUImFClhsj4FtJUNkEitR1nuqG2fxRN6RpkVlz+XR95yppqibNkwwzNzipKgaH/GtyP0okQAUwAz1rkhqhr7UNiOECMdMGGIa5bIEcHpqCJvGsjhxy3fS5ZXnzlx60vKn588bhh1HjuMrYzr7+/q3NOUyjI1wDwqJ1qARX1Ykyh5BY0umA4UbV/bpIsTJz+049V8512vfUuv5puudoWP1xzKIG0JWRWf5MyCCXAtl+iL8sdyR0/7qsaaPiuxbOIQ3DAWJuaFP58a5eM7Dfeupn/NnFQ+qmOwLS3i5QL8BT1hUISTuZ9moiFqfBjIPHC0xi/OsfrnNzb1LvuEyA3+cDMr6wyGDOQoKo6q2P+k2m/9Xuhy0oCzpsG++K6C+IMZZQrpM5tJ4sl6D+NiTHkXoUXyNICzRhft3dK9IXuJOQXIZvW6JCjX63bYOpJo3LTd9NQI3PzIVqtDbIdq/5mRR1s5dCl5mXISgfkE9PGjaJnYiqrFSGfIgQnQxBNGl5p+VKXkGnLPSfntLGPvvG6CQuuY4Iz2mvQ8Y/7uyp/qeQ+sgS5UbZP9FDVFnP5v8D65bTvFp61z7P1gLP2NucDdDg2Pn94RRZ/oW0bDE1oCAJVhLJFLNm4MZLdMkBBWVFxiPDXJHviR1Z7BqlNPtq3YqBIh8Vu9mb8ofncoBRd+HReTLjKDjqUeHRWG+I6huzil521Pdf5lFzmNzqZcKYDEWTQQ8DCBSs9LSFe5oCe69yK7BOMJ+Ud2tVKJax8S9DZ/G/ZS1NRkLGNh0rGJXBvekwgy/LJ/BlHV2m3D/6rD/zYXlJGGnT/mZiSa1DxNmibZ74opehCjQWjNHOCNthjCsprXxkP8/0cnEa1wlr4U2+Aerkh6zIGhr4+ir0DD5lYC9vNgcLQ47utwy4peSuEHFqUhsMmsBqsvEDLlXOQ/DCSVT8vxUkqrcc1va1RwpJftcHOnPP7WS4XqX2uopkW/f6hMDwNncvrASi1z+3xl5P/R4XaUhcwKKhOOm8fZfim7hMhE4qe76FTZGQHT7g7xq+QK/PA552Pv21POQ6sMEfnOC04DEmMmweypf9AG0fyiR0tj30iDLbqCE0CZcPtJ6AUC7sgpj/HBU+TEdgGe/iXQbU8BUJxzAZDRU9KksZB9/ADZsmb9FAJ4f9ACBwXwb6+CAMECRYEY+I980dB20N0ch365YswmKMyWljaFYBWlIkCUL+hED8Z4vDWH/9dsLfX7JY82Yzq7gdsh4XGzyBUskRpK7TVBNDh7+EXITn7JP8VzZklIVkUldjzXUgE0nPl+UiMGLgLcuMa8o/zdBc/ler5WfOir54HB6r4RLG6px2iwVbahBLGpOhRIA2+ba6rd9k/F5YYMujKnswViRvnb/S/JSVez4xPPH9Uf+QlIgS9kqoH3sUlCdAkz3ujeGzax5A/Cw2JXYexIwl6hzTb60PJ0t6AXcBq4GPPmRy7ww1L8dTS08C9/wuM2G3v+2MCo4N+mLWmXz7BgNkDUdPx0rJIcTVAl1AWD8a9gtBwaQUDcuR1syWgZ35X5XkcctnbyWG0O1AX1EoaCQ6hjdyd+wyAXsl4rLisySkdk3QnINpixa/g5kBT203Nba7N5eTvJdNnQd4191NU5EckfQ0vKj23963okn3BT6HI4ZM3kGWdc7lVDq/5Zt2HEUMKAHsSko/0uEzJ7/sYBidIH1qrtk4GCTe2xNqzZiIrVmy9se6ItGbKwL8OsuKuKS006PpItgZGl9hRDrWzLmP0Es6oE1jxOEXv2jq/Hdw7nl9ZlctJtWyFX0kUP211/Pt1HYTjHCG1rQ5SMlgxYM7NwM/vBb7FGtl83GLk0UG6Obi1IctBpV42johZ5Mw0zUUOLaI515SOIfl67VACpQQq9zqbQLLD/OV826eCAZqkMVMToIUUIck8Xh+dloUVFwH+czWN3KMUFaH59ar3vrSB19F4k8NWfmfQ9ex0huJP8G5NnT0lLrWJPtXsLdMPLIiLfEDV54vl18S3pVvaDPqkIAyBzjcFq47EeFf2iWtF0PLbgAyVWvlvF5+ZMaaZqJ2e4AxgfXPQVRM7BEMJNs80gyHlHMEe0mfGqF8soFNRgwhurmNjPHWb8qTT5jF1HsAZXD7NT8224g/iNYHRXiLDHqJ7T8APCqZCYi6QAm6R1KjVxzVhcBkPWykoKy3pBUqA3vTXz6XHULoKaltZLCJDWI5eR48Qw11xHcqMlhMmsmQxfGwVxJYPtruYeVRh8iCv/ukayfoXcgGHMPCMGOEp0sRStJFfwVNHU0PQ3YK0f6SHXFuC73jTM8n/CLFh7njmtosPl/4Eyvz+MtZbBXwKSHmhfw+SW/xiNUzI8KSaecyiJbZbx2MnPMWgXOrojngVsPLFpQb9hFQGi35e5VF+Ce8DzQv74HBY7mjfhDI73QVMD+zZStEkxCAiapONAm28F6VNFUK/PQO2MX1tya4pF/Pt6hC0G9oH+er5RD0qXmmQQVPGE0rwA2eN98UWqvqLFfXbtz4HWpjXOrGYKcx4ZXxrdBoDhM/EfdCotvj7z7x3QkTrA4I+13KwWRwa9zXlOpaG1AKn3pwz7bfdOHR5uxCn/Z3HqdGP+3BA/612kEJHxCTzZgt6ovlQ4bbyZ+LZuM9fNiuBiPmcbTKlywdPil5p+KivkOgmLEcokOHIJeDfe7H6Wbz0y6FUGHGtjq1WinAqZafAgh+z4SFuPDJAYI29Sd2I7rjzzqVpvcNJU8MAnfraFUJM7oqYYkNuTerSnJ8YKUJawsveg6JfT7A+5kX0kogKYa42awBCDLmkIoh5ld9+/zKi0h4dS5IbmMzW8uhQi1Ab+MbExCtlarn0pA3lUZ4u8e19ZKNOC7EF3K22KIzdWuno64neErx98pxZemNMxhTpOAqwC+x3D88XINoizFSCp1tX+38P+JdpnNHrIu3OCB2dus4kxqBKSeYNzL6UrSBGWf4LPy8tJqj29CRp721w8WdE+S60n72jv8f5RoyVapQVojfB+B8nHI/bPbvm1L7uphpAaZLeIylYRSGUGUtuI30SGT3MSUqsILVzQXtT3dg5voMfMsa7uqQ9cuxZQWWOq0u48YiecYcWlUWhoeWNBKUGRuZJVLlFw8YVoZ7GquCCvhAcljlJuNXyQeA109RjCmyL1mnXZllTfu3OsjCA/x/M69OUDgjigwvX2sbkg4pbMHujK0VpFvIH+BwHOZR9HD2Fx7ZCejW/wVBRdJRqpI83vBBWVOylJYb3XaQhC/KPTyiltneu/2Q8aOrwiQkQcBbmTdBCi9t3lMEW6yl2xHp5cVPnr3dbFYCX+u9dE0YIzyW2whrZMjJp8cdb53i7lbSXXQAJ0Aqa4Yum+rWA2X4KoVOzxaMCyDiUWOFeTn3B8BNNnuHSuHetuBXGp7Gp5f7FXdnbw9IDDQRDnYXc35oUVswcJHA8vv2Jb5bykFgc6uQkWirhax4yeZJ3l2GFId2tLkB02HwTxawryv8hp4KC8/TJ4B04T9I+5sJRXjlBg/THgJGFdyWAefmKbyZ4GMSkAn5qKCKa/SzMACj31qzdnR2zI0k3QFM2Or27QXMZwS45z47+uI0ncAN0dkJKaNBwIkD5W1eLBqcArKfosbEO8ByGTXwp55AeBYsXoSmW93w5Jq1ZAnOiMbCCoYZN6UtMGkgG+K3QCjQ/k+AM/1ydhQXkgYfVRpuGVCTTwieeQm5w1VGXWx8N9CYymjSIMDRvlDWKBt/1AooX14euBaRzDceevIjeF8w2of9JIo6Jhdkvy3yAhpFDoGgdAyMEKKKCgX47G1qgDrwJCJDMWVrSWWB4tQF5nQCSf1vRtnimx8aVLY6bXDpWX60cL5Y7DV+fa0YNXVDkAp01KTc50HWXPjETuuOXWyuo42pEGDIDT/M3ZvFDk9bNspQBv3gmNSNaHjzBZJzSmNOnaM/qke34wEHbcSI50/LLfgAplJTGzLr3epSJs3fWDqbyppgheEz5Xo2S8pJtZQwb0xuwLkvjCpPdilOJGktL0wSneNU5Z1+OtkC/lHvQkWnwLl2D1x194xHEtQd3UhaMiXyqIlCbwNTEq4IxZf3cF6lKNBysX2QxS7AX536hZohx7z/9N1wvoq3iPUYW8lJNPFi+PRD3ZP/CCbGXzfaXwRrK7d7e2kP5n6x71JtZGv0+Fww36XfxKFWAQ4i/qfqLFbKcrr3lkofSCDfS8cT7CeDTKZ39y2LWTTAIpBqMO7LhoCJImSvEOzONoqxXE8Vqhyq8NpS0CfnrLusv+siACjQ3qiYNhJ7pVmDf8Ifd1sd96EEpz2um8d4vfLEaQFq1cGxtdJdjcnXvEN1a9pcMLQPm6PXdS5KjR3NHUI7lnnFNQZ+DjgKQYfNZNhFjQTjEHB6Ol/nlxQNiOlD8M2BcouLWIJd7Ay7L1D+LMCBJh7iL2BR16kINiMuHdKGRIcujohO9VkwlcV/zRURNgvtAq8lNfcZRUGFS8Unw3NrI90XFtU8yVwJ3FJlg04agYy1glpogUCoKKroIKUk+j4DIYWxltndzHGNx2CYANfwci8HDqA06JSbgsRzy9t8NhbLoY2UvGOenLBP3OwB5+eT9OXzvrbbifhDVd4A+s4/LMGIBi6Olot0DSuZxH1l6Bqp5D2I+yNIuS35t1dkZx9xNdKydWzExXVciVKycMnMK9GOKrGiTJ7e+TGl+HMzCes3jZcXAKfCRTQMFJ52jeiU4ABR/iwEgLtWSE4bLHxOJesSVhgq0GZh5tskNwhKp9r9haGAW3kWxQ3CRynwZgkB9nHVpLz6ZKtrUgktZfL3YpQ3YZa9jlGKs5qkuSlVZ5JmKKIr01fKRLaBfsMvRvgVY+k3D1a0v2JgEl2T9gXOelT6LbXxLMM9rAcDCHOonsPXLAVDAQLxfd9EaKGIa3D7td3idQ1hM50OwwrcqDD0HlTfa7hoSQZhApnLj8akFTAPpgXbAi4G5e6KM+n1nvQz2dB/1JM/de57oapG91U+slD9pTh49XEyaoBzz6r1tM8y5brHHrPT0Lok9Gf2bqbGkxD4gIuUjMX+Z5pjlQxp7FGYfi1O3J/8cYY8Fkl4rA+3jcoE/yb7d5qjLuEgGb1sservx5rGkfOBrw30YU+X7iNcw9jqXslukc2PxFv3UxclKkKfbe9pAyJ3IBXzTjFe8eVZWB5wQ2j1DPJUP5x/BLZKr8QzsEANCfHO5JFnd6fC9dSX5p2Jo6XnccT0bGSmCDFevKtKAsYGVrCQlmsfIJFmyDQvka13fqm/NK0LCtXDi77mpBan0qcqhaSBrMuQ0BPhLDCos3hyXKlR0wSPbsHVEVSUIVaT2Skustys7Qu/1P5dk8TboF+37vFaO6xZ12K2niIts8jHg3fBcz6Pdi/5dqPNuewerVofyzw53GFrxO9u9zipASCnQkiNMA8UHjmV9wRDBB1eiob17CRTFNi8mZkCCEeuvBXuhKx09xfpMrY7vcLRZBE3dUrXUA2P9o09MVT/AQ9i7hTL85uj+C851l8Nya3nETnuTd9aunItuLuW4WR5cIwf08yfd1/oo2wWtTgPpHr1/cytnsP+qGkxN0UunRxZ83bhUDs08eD90U/u3hDCASrP+5vOJmPvJXT1coG74zuJmuTLHkcbCxZvHZXPYTMayjJseGXeO3T2/OZaEv2O9Mtutknm8BMtYBy8nEGf5wBEiNwaVLZQ+60bpAwtrM4/qT5+IrW98VyKIf7TDeEo95zPjWDNzrRAu3wdCU8+9OLJpSYzCypHbA3cWU/Z1IWSsRRcL8NeQoiXc3Xl1Y2Q5q6q9M+CLi41nrElAhdq9pUNbS+Jtfs1I6bDkoTjZLzeGc3azyedqb4uMEsh6yBrR2YcXhXigg1qqmU3lYc4m11isNqfdnq1ZMcm6AM3cXjXWJJrWuVZFHMI6b5e5TSk32Yzm6LO4ICrUWH2low0gKjDGWhwg9pBA6oC0u9oFj9xYolbEJX9INR35UbznIeNHuWTHWDIdqTPYaCJLoxsvZN3/0BGfI7NdiYGhJmIZLbK/7oBNbcqaXqNfoQK0MyMF7IOKLGNzajCAXu5FVkch7PsDK+z7AqF7BgS73o1UmX2Ux50kYjO4go7WPOmNfEluAqTlRjnGO7jQn7fwVXpUaKZNyUfnC7NFTVi5rj+02K1/oHnC0H0bj0erdsnPCd5gKe4S3Exowt6d2WjcFhilO3U+hgIx44jfYEQ3ogIPWxQtVM9wtfAb+HBLUGbIXUc5QTp6FfNiBxtWWa4pPURBfSMXKC2+kvFL/TIHCmIJukW0NXJw8aA/kdTaFXYFXy9nBxVz6nVDb+CWXgUj4myfwhJaExYyXItRh3N8BrQEqDJB8h0eBMmFqTUHG+SUff5xRBaHHc8dZ2VhWLXR5SIINgnyeFS9VsAAElI+8ddp0SZ+8inEjaFxTpLqV4pmyX3kFHGtY/LckgBxsiQyeHC209xc5Mu8M6HfvaBZ1jp0GK27iCc01EAxQf8nTfVsVgT/OekSP4O8sYZfGwesSQbahJHpQGMf8T3NtWMg4ocakTcX1Ac4U5P/G+OnhMv4a5qc6+66AvQjFANoV9ZvfuDdc9+PvE3bWz3Ee74BotW1KGDpMjTpkYp2oRLwjpfaoAEtSN6v4ByViqqwWQ5R7fiLLsf708xME3zJxksjCujPJSqSmUDhTq41LCcAN+QZRSebxZXVd8Yl1grDYlJze2bE57FhaJDDA9Y2RHVNCIxskK8GhlWXVMAETmV02ZVw+SNcMM+x8/9ad8MOncWi5sexkXoR+lTst+TLsH8cz2K4TmsqYdmk8za+62fysI2kU40LlQR+IaSrHB0SD1dHDT2t39RLcPUKn0+oA5QALXvsyS9Yr5zX/yhxLcKYMjRqHwwWlOOEpZTfHaaycSCwYOEzcLn9xG29RCNX2DET8/94k6fmWeuoyY3eEaFmIGqPwwkNLdRfv8mzJHKIqRzFl6/ck+q2ACsI6AMupd7Sxi1xGmNkJp0xJs98aeRqxiHqzkd8y3i804YiFP1a4L5Lj5t/xlTb5xGR504jqqFva46OGqiIU1PVpXXhSthmnNJDiu8r4g03C7KiaOll5lWDPBrJGoUfP+4bzsEDHnCslU2+Vws6YlF2ajMBB40yoIO61ZUZY8r20bSU2W2VU0rdJqo3Mdd59po9pIWO88qi9yHfR158w9SnAX7aobYLbq6ea5J1ckV1Yo29AwzIqItaW7aU0r2jyZC0sw7VPqsY74fiYit5ZfZZtNeXSyhBywrpSV5QtFO/RGRQiv8PxbGOlKG3XhQy+DeAXIb2PEBMxPiK1CH0i3SczPqPqBJS7KvjhMmQhMRU0RRl/SUTM2emvTcvGoMjV3AbDY0Tf1K/A6XhLLmNvuFWjFiUgtFfklQfexQnePSdaGaSBzZ5ucpyKbBWx29R+Ie6PGIbEze5bsSBqMyPN7QquDW+rxGmS3TuayaxWCjjYrjwNMG8UQhwHX9+aXD7eHZwavG/mXOoxLmRF55/Zhjq8qlT4y5EB0WjsjboCQQ17CK+oHvKFtMtIv2FwfjtA49Tym+cJQ1VME4kxOyQiwnXP1Mrpa3x9xv4W2QZTUtjxhDxSrULKGAiyUdd09YKYvbPYC8rBIWtgaV2/v8ibWhDthHTJqIZS+E1sWdnsr/wlNykKoEaQEucl28zho0u21cBmb2tE0B5ML/y9eWf8nQvQo2v1jWHZINsd0ZIoKVl85rY1LghV79Ok1d0qSvstAGJbuq6jssfy6KP1iRgAhkFGtS2Ir42J0+caEVuNb95/+QrbgkSLowUqwhObo77FlM+dLH6Rx9/1hERCuXG04vwDYi8AMwWptsC//6dMqFvD7w3ZYXDQNUaPhnXa8DOnBTLcx1WM3IRr17uDqZ8K7eWH3rTtRSEjxzFEAd2aYMLTNBSBpmZomRlZBsgVuyHJvMW5JXGuBNWRKkqQd5YONy3jeBBgulKh+rKgVPQ0JP7uunF30VlPj/KPAbQoQzqJ9oklU++unwU2R6G/5G2phJIdEN3bDOqqoCtQoDtdBGbSNRitS03OEj4ZDjODNSAuRQsoYMqIGQMk2d35lCkgf9GUqDGMIG0u0p5ON3YCSuP63PI+EIDNzQO9Ed2KcamZKnZI9YAcaLQWVIShbIF/uoeap6rwlcxpNpVic87/j9aMt5kF85JBtnahQbi94pOdI+w5tnxiDw//XVcw+sGQkhuImPAZd6zcdKzrABQrppqUeFc1bXXJBnziHy/i9ShfYpUZPuLjSBUCfH8HyyEZdD+14bCDd/wi7TvV/Re0apfukSkjdC0aPi8kkEvqfNd9ake3yCXUwJ+hITLPWHP1gTK2S+SZ8FmUWBfVjQpvRRlwD6k67UeguNW0PmCuq8ByTPmi7fS2p/77x/VF8t2eT47cjJu9/nEiqrT/jHwJiGO0X8q9BcoFJ35Nl+eRhCPQP9qtXkwpkUpdOFvRJT6ItXyy/nBjw45plTWE3FW+tDFtFXGsU84xJieg+wlG9fjGTwZCMrRjTbqOM2uOKMZFZaM0OLu2j/09+0XdzWp/uZqhly9lW9MjX0+kerI6ddYRNF7vQWdT4olpgX/TNtPiIm3fPvPSwpbvCVGnZ81kUbs+WRn09Gvz1kTCf81UoEjTI6jj7QzhYPglG+aOjiR/48KvcY8pwIVtBTBAku26t+uXqPaxiDbd46/4W5dU1Xcvggr6fYXP7s5xFK+laLnuxgIdtgL/H3nYnjShqksLjoMWC2QcLqBXTTl7tqSqVJKpKxvxllIf1JQ/3Ct5nJ/eTmbjlry7hbe8enejN7nsWBtyxsCcWCB7BaN6O9JkEC2XMMjOHW11Szlm1bQGxtmdRETqXqSDCJVf1LzQ/7M2thM2lWBSf5Zsrg6HWNCIvalJnFXJxdZBNQILDwoSL/Inm/R46VSXzIshcojBx1gm/KU8hPxnBaQbWuOGgfcmsGyGMSey+2MmC4AL/THCy1uYGUhfwJ9u09WHIHjiaxdauVdpmlVuq1C/NrkcFxSuPgH/QASe4bO9zyzyGx169H0gtTNGIJ2SzflTHThCALG17WJNclp0uIrnazZkrm2EsNF9vHQNTKz3/Yb1BRJ8Du05BPIKJkmi1ZpM+MnTPX1cVNbAm2wyUwvW7+XzijbJRu5dS2YlaiDm/eaE9SdbR3H/k2UZXd5P8z3JCyxIt8vtc0HgarOm/mKzgLBik0NsKbcHw5w8h3NAL3O9AHHcTPlPsHwxruldIhBq9gDTYsx/v1P28hwQWh5oZlMYnjYWZJiRM1xeuJhl7eNQDosh+MBS9oRydT7ugUWTj4P1EA6L2GsUOfg3J6a2qFrynsnGmNbwQyaOV1Rfd5PmtfsESyP73RgelmPFHFt/eFGqfJSbrdCQPPrP917btNn6KWFl99qgsCJ7Dg+AeNSapc2SPdg6s22LJ+UHQyNpQteh5CcdJb8gxOhD5BLkFAfzfzdp01A4U/SN6f5nU7kQvDHnnZmvpyln3ZnyAbd4M3c8Wrx9qpy7sRwjsU4F17xcui9h08f64FV2Oq53c/8Exnx47fgWeUTvhjsmoOaYsae/1njs7XrlICvia+18Z7e4ZKNLqcunxBbMRAGcYblPwUtKMoSwusPyBddeC8ArDPWVKjPvcn2thtuIs7vCGYi+Fx60F4pAtnTK3XPjZX3gUCyw61uf30C48hE5r9nOboYnLBYQZlzrxPKdArrFxGoXCwwmg95eGPtBPiqHJi0AvvtdYAZDOY2niQCXmsmNddmqvbLVeGZafBnI1E08Q5Mt8ntB8lzu4i/oZnYRSAYZ+gzienPrJOQf7LGcZCcIhOWMvHLa3gGJBTqj2pUo11tnoLoLPehpmTSarBO0VYlVxgOtjgtvlYpMtRRHaddnFzcj9t2HOLauebKyb5fgBPHvq7GD3QRxcjDQvz4r/BN0zxMb5sNAHDBQFClWqv6VqN3ucm1/3my5sL4V8wNZUF+MCEJ7zOv6gZIRSvDheX+prDgo1hS1awmkBz/UlUd/IofQZlR91LtwBMy/nHq1rd9+tUzqcQFxsIAn4ZYPGi1ZFuA/5tA+Zr6kVApvf8YZRcovDB0GF0ZHJQCfaqGzg/Rs02nxkHiEzkn+1QVVM5kYLRJ4ZZDtSmKiPSP8dKS3AaQAORYqdMu8iXeVdNc9aDvoGz9HolN6RuKDzB8+6jK0AR0u8bvUuNeOZdUhJ178i695msnHj6SRhlB7FvzXceFIaWZysubKWu8RW/JQ2ox88l/fFzb14cKiuhB9vCUeBcD633wkR50DckJurcYhp0RJvyFtk1lMaH/LCY0NLsvY/v1cHgFUex3UL80K8YaG8MGvdUYCJyRIBQmHEIYhqVGINfWr/Sr+R3/H9SX4UfE4FdD3ipf6EXOoCMWWNSvEpz88kZqioYbLKO12t5iyVcCrMWiLFabl2Z4pvGiNl7KY3cF17FcMHmHbPGvWWJgIyI79ID1pTGJzq7b86ShkKJHHf+yn7cMyqbvVGQpoZT8g7THva09TXHXMj4IHmE603ITvqOL+IZ1RVqTkiRDtV19k9S94cIMjFjs8g1pbrpBxtAaKG4TTC1nr9pSV+GMBT7IB/oWD74xnydMbdYAq76anzCy0aw6yOYgxIUEBvHw8ohMWcn15Q5A4yZvYFFSMK3p5KKzkKnW1mTfMx8AhdlBwtkeaUZmB8/9ZWBtXtlzpRuMJ7u1wKLoWURgb4qmuK2GGqhBkOsIuJTIcupkuVk6WNkMlMoibdk5hs6UCC8vvEAHrNB6ZGsJK+rxw0l/vkYPgVjPpXPlX3SkUXJC1vlYpCJhUmcwbSCEmwxR51BpE4okzLKxGazDVm+kybCqnuU2bemhtkm1+JMiaRnm2HtSFxk0v5G7hVJOuORyUNMZKIh2I9YftyzVfSCplfRUoDQjFt7tlT5XGkCPRpclQLGWLeU7oto7ovlQpdwoNh7G3+LW2yUQpP6EASBstWPaFALxoGVUPDkR2hdQjVjjjuP2l2RlcpdZ0eeiXRLAvUQGRb2px9K5yCaRq8wwq1QmWDGDEXtXU+/1Xjy9LU0uY4dFuHdqYJr6MyioNQbfLfaaZSkGt/WovfKpBJxfj+NRRJ+bnmyQkVxTASwQCQoInSS3W1NxG4iI8yvGtlsleCL+jAxpmlHp2lx93klbemhZAIkpvC/ttYdl4Mzb31CNlZ8ftUHW4/1ELJ0EnXLmwUPPJ3zWxFHRe0dhCPp0dDtQigcO/SMdjLvYoK49KkFT51MtDXC9JFvPtn0YfcKeyw890vEqB+tqOjTuaRz0crgfoNom1zwS8/7CavUKYZARtr5BULPUXTpvOA5Ut6eSxpuL6JvxAqfG5tJ47tXOELSqH13C2MKHrRlFBWxX6Bv7+SM9+r7J4AkO7nEHYt68Fui3U6Cq+quTHSSA3rvuQF53LStYOt2YTqn4ura/hfYcLSksNDXpbZyAn1Qgrp2zFeDVQtdchgViPw+0DA86M0m8NEZjnREU7T3gcq6GcrQbDXjMbPAogEWT+UYJ49SMG4o9RLo2NpDVP6C8vqohtgrAGUe7UYtfcDmG3yAqJk4i5s2mT91kwX1Tbci8TMqAUJUyCbPkwnMaqglIriYDG5sFgyJFbXJUIHCgojPjtNvqRMzU3qkUPBtZXDqAm8eeaKJmjJd/06BVk6fW/aXWT1ZXJiTpOSzXTLvVIGAY7K6TalfltNiMBWiV3xvNJ1iLY6wUqfcggEnmiqlA6kEh2HIia0Cqcjr6LG0/V1U4c3MTMNphWYsAMjJp/lubLtjQg+pLxBpZQGv8rSoVo8+kzJHWPhbL8lnFdBHhjdfHMQlf6hjeekBdISN/jJHCQIDM1aD1nB3Ykk0qoY53+rLR8g8VLILVwFid1KnEBzF1WYG6/vXqHytCcwfVJs6rOjqJO0MgRgYW2MUKchEWz1H9w1J7gfz6YEtm2LQv3A3wzHEnOoUfTKU+J8RzdvD2NG74yUoViBONY2zfFELJRR6yzsny165UisKq0zgd+31HnpDfRgwKixdqHFTBzmbVylGYusgqPit9gjGr8u15igNUZLwkh/mq1duZQbmOBvWgg31blO68/vCYmgmcbT3cf6Z8rzhSMiiYP3DqeFzvQnCiuXY3ikESXQjmZr1uAAbQxpyHNOKeNxzOGFFtEgycD1FWR4i2Gxbbky0R19cs1rGzgT0BErLNmNsEpwAmzeR5oBy1ynRjazGjWWLVN7YHdy3dCWZGEm+SKefYccwfznEUvh7NDpBrLyEPhHqMeSUhRcZvbdw9/XNxPmm70DnC2dpRkEtfZw7WMgIQAzC1qKs9xObxz12HAfIrAhIGx4USrOl12VQESrGwUYHUKYQhWysB2VFLL7vExq8gnW55aErXqUNsGjeXAT12DFpBiwybVRCsGN1T1kEExGClSwbGw+T55fElvV9r781DPzLDp6v5yb29ekQVk2tRia9EsPFLP4qbn42SDZywYK8Zj6rbpvKKguEEpP4p2oak7WtKCYL6oCpACwixd7q8FmSzBRqcCH3Dll0uuNT42IBQbkT2xcV2eJVq48fhPoYDNtDFlldwXBS/GrzpoOgZhbaPRh/0fsSam3daAYYzSWFts769tjkyIT5liSxf9AxGxZPx38xF2XW4NJGBFKBzniufMmOYyOzc3O/44w0plvZUTMpzAl9WY2Hmr4hU/By2bO5neioXXO4l93Id9FXBrTgRP5g4Xnqy2Ht4XpQkAVxMkaRzrvMeIJnzUw+1ePz0LDkUoXacLMbUFulBMbN1FMS4DM6QhWMLg/vn/f246KrcVyqwwRs716nY2rrkWd5OJMiuHcFb0JQYrRrYX/1owdf4Y3mUrPYEhlLc99no7E4tK2GOdMHjfsU4DCOxRwFP3Dvi2bZNKWFJjgmjsagAQv+E/p84AtnUJ2o917mck7Kf0brfEAivxMGankaXXQDa2J6fDC6CKHXHwn6r9Au1+ob7IdNdt6cEFYxTzf1HaqugRVKyE8Sjk4ZdvVB+ZPivbp1agNkk0Wu7YtAQdL6Nvr48GHRxCMM5bnKBGnzF0ZmIQ3gz7U0oc04X3s7Oc87l9htVGFY1o3Gy0bg/Lvv16F7KhvmwHWHj53Rth8RrDQMi77pEe8iqhG3wmeA/2tMhgaS+sFIyflLQ3iPJPHsBGYW7SRHVBBH0suC/oZu2e69pltsnCtmKGETYc3lyioqSGw6ON6S3UI6oZ5kYH8rsWyZhwinToAn1MANknb3pFz8nuOJhJYp6dz3eD3Nbbkcec9BA+krvudsng+LmXH+KULWoNG7hjaAHo5P+S0KGl9g59oTNOYeOLmKkGEMiw0O5UKmExs/4e4lNbFfciHkXOpy4IPIFGrWdniKBtDw1X0necKaikATFVl5dqEvLe1WwtHlhkBEXf52zUNWxsm+lvTiSXD972Mym2YPrmvAvuFIU7IyM2IqzCvvrFJQyDY2Ej4LSz2E6vodx6OAG3GNqEEhHu07rGrE3OHUtHAAAA==;" vertex="1" parent="1">
          <mxGeometry x="130" y="70" width="419.79" height="280" as="geometry" />
        </mxCell>
        <mxCell id="CwI_LgiP8_NniUalK2Lb-3" value="cutting program" style="shape=table;startSize=30;container=1;collapsible=0;childLayout=tableLayout;strokeColor=default;fontSize=16;" vertex="1" parent="1">
          <mxGeometry x="130" y="350" width="420" height="290" as="geometry" />
        </mxCell>
        <mxCell id="CwI_LgiP8_NniUalK2Lb-4" value="" style="shape=tableRow;horizontal=0;startSize=0;swimlaneHead=0;swimlaneBody=0;strokeColor=inherit;top=0;left=0;bottom=0;right=0;collapsible=0;dropTarget=0;fillColor=none;points=[[0,0.5],[1,0.5]];portConstraint=eastwest;fontSize=16;" vertex="1" parent="CwI_LgiP8_NniUalK2Lb-3">
          <mxGeometry y="30" width="420" height="40" as="geometry" />
        </mxCell>
        <mxCell id="CwI_LgiP8_NniUalK2Lb-5" value="sunday" style="shape=partialRectangle;html=1;whiteSpace=wrap;connectable=0;strokeColor=inherit;overflow=hidden;fillColor=none;top=0;left=0;bottom=0;right=0;pointerEvents=1;fontSize=16;" vertex="1" parent="CwI_LgiP8_NniUalK2Lb-4">
          <mxGeometry width="110" height="40" as="geometry">
            <mxRectangle width="110" height="40" as="alternateBounds" />
          </mxGeometry>
        </mxCell>
        <mxCell id="CwI_LgiP8_NniUalK2Lb-6" value="wednesday" style="shape=partialRectangle;html=1;whiteSpace=wrap;connectable=0;strokeColor=inherit;overflow=hidden;fillColor=none;top=0;left=0;bottom=0;right=0;pointerEvents=1;fontSize=16;" vertex="1" parent="CwI_LgiP8_NniUalK2Lb-4">
          <mxGeometry x="110" width="120" height="40" as="geometry">
            <mxRectangle width="120" height="40" as="alternateBounds" />
          </mxGeometry>
        </mxCell>
        <mxCell id="CwI_LgiP8_NniUalK2Lb-7" value="saturday" style="shape=partialRectangle;html=1;whiteSpace=wrap;connectable=0;strokeColor=inherit;overflow=hidden;fillColor=none;top=0;left=0;bottom=0;right=0;pointerEvents=1;fontSize=16;" vertex="1" parent="CwI_LgiP8_NniUalK2Lb-4">
          <mxGeometry x="230" width="190" height="40" as="geometry">
            <mxRectangle width="190" height="40" as="alternateBounds" />
          </mxGeometry>
        </mxCell>
        <mxCell id="CwI_LgiP8_NniUalK2Lb-8" value="" style="shape=tableRow;horizontal=0;startSize=0;swimlaneHead=0;swimlaneBody=0;strokeColor=inherit;top=0;left=0;bottom=0;right=0;collapsible=0;dropTarget=0;fillColor=none;points=[[0,0.5],[1,0.5]];portConstraint=eastwest;fontSize=16;" vertex="1" parent="CwI_LgiP8_NniUalK2Lb-3">
          <mxGeometry y="70" width="420" height="140" as="geometry" />
        </mxCell>
        <mxCell id="CwI_LgiP8_NniUalK2Lb-9" value="muscle groups hitting that day" style="shape=partialRectangle;html=1;whiteSpace=wrap;connectable=0;strokeColor=inherit;overflow=hidden;fillColor=none;top=0;left=0;bottom=0;right=0;pointerEvents=1;fontSize=16;" vertex="1" parent="CwI_LgiP8_NniUalK2Lb-8">
          <mxGeometry width="110" height="140" as="geometry">
            <mxRectangle width="110" height="140" as="alternateBounds" />
          </mxGeometry>
        </mxCell>
        <mxCell id="CwI_LgiP8_NniUalK2Lb-10" value="&#xa;&lt;span style=&quot;color: rgb(0, 0, 0); font-family: Helvetica; font-size: 16px; font-style: normal; font-variant-ligatures: normal; font-variant-caps: normal; font-weight: 400; letter-spacing: normal; orphans: 2; text-align: center; text-indent: 0px; text-transform: none; widows: 2; word-spacing: 0px; -webkit-text-stroke-width: 0px; white-space: normal; background-color: rgb(251, 251, 251); text-decoration-thickness: initial; text-decoration-style: initial; text-decoration-color: initial; display: inline !important; float: none;&quot;&gt;muscle groups hitting that day&lt;/span&gt;&#xa;&#xa;" style="shape=partialRectangle;html=1;whiteSpace=wrap;connectable=0;strokeColor=inherit;overflow=hidden;fillColor=none;top=0;left=0;bottom=0;right=0;pointerEvents=1;fontSize=16;" vertex="1" parent="CwI_LgiP8_NniUalK2Lb-8">
          <mxGeometry x="110" width="120" height="140" as="geometry">
            <mxRectangle width="120" height="140" as="alternateBounds" />
          </mxGeometry>
        </mxCell>
        <mxCell id="CwI_LgiP8_NniUalK2Lb-11" value="" style="shape=partialRectangle;html=1;whiteSpace=wrap;connectable=0;strokeColor=inherit;overflow=hidden;fillColor=none;top=0;left=0;bottom=0;right=0;pointerEvents=1;fontSize=16;" vertex="1" parent="CwI_LgiP8_NniUalK2Lb-8">
          <mxGeometry x="230" width="190" height="140" as="geometry">
            <mxRectangle width="190" height="140" as="alternateBounds" />
          </mxGeometry>
        </mxCell>
        <mxCell id="CwI_LgiP8_NniUalK2Lb-12" value="" style="shape=tableRow;horizontal=0;startSize=0;swimlaneHead=0;swimlaneBody=0;strokeColor=inherit;top=0;left=0;bottom=0;right=0;collapsible=0;dropTarget=0;fillColor=none;points=[[0,0.5],[1,0.5]];portConstraint=eastwest;fontSize=16;" vertex="1" parent="CwI_LgiP8_NniUalK2Lb-3">
          <mxGeometry y="210" width="420" height="80" as="geometry" />
        </mxCell>
        <mxCell id="CwI_LgiP8_NniUalK2Lb-13" value="exercies for that specific muscle gorup" style="shape=partialRectangle;html=1;whiteSpace=wrap;connectable=0;strokeColor=inherit;overflow=hidden;fillColor=none;top=0;left=0;bottom=0;right=0;pointerEvents=1;fontSize=16;" vertex="1" parent="CwI_LgiP8_NniUalK2Lb-12">
          <mxGeometry width="110" height="80" as="geometry">
            <mxRectangle width="110" height="80" as="alternateBounds" />
          </mxGeometry>
        </mxCell>
        <mxCell id="CwI_LgiP8_NniUalK2Lb-14" value="&#xa;&lt;span style=&quot;color: rgb(0, 0, 0); font-family: Helvetica; font-size: 16px; font-style: normal; font-variant-ligatures: normal; font-variant-caps: normal; font-weight: 400; letter-spacing: normal; orphans: 2; text-align: center; text-indent: 0px; text-transform: none; widows: 2; word-spacing: 0px; -webkit-text-stroke-width: 0px; white-space: normal; background-color: rgb(251, 251, 251); text-decoration-thickness: initial; text-decoration-style: initial; text-decoration-color: initial; display: inline !important; float: none;&quot;&gt;exercies for that specific muscle gorup&lt;/span&gt;&#xa;&#xa;" style="shape=partialRectangle;html=1;whiteSpace=wrap;connectable=0;strokeColor=inherit;overflow=hidden;fillColor=none;top=0;left=0;bottom=0;right=0;pointerEvents=1;fontSize=16;" vertex="1" parent="CwI_LgiP8_NniUalK2Lb-12">
          <mxGeometry x="110" width="120" height="80" as="geometry">
            <mxRectangle width="120" height="80" as="alternateBounds" />
          </mxGeometry>
        </mxCell>
        <mxCell id="CwI_LgiP8_NniUalK2Lb-15" value="&#xa;&lt;span style=&quot;color: rgb(0, 0, 0); font-family: Helvetica; font-size: 16px; font-style: normal; font-variant-ligatures: normal; font-variant-caps: normal; font-weight: 400; letter-spacing: normal; orphans: 2; text-align: center; text-indent: 0px; text-transform: none; widows: 2; word-spacing: 0px; -webkit-text-stroke-width: 0px; white-space: normal; background-color: rgb(251, 251, 251); text-decoration-thickness: initial; text-decoration-style: initial; text-decoration-color: initial; display: inline !important; float: none;&quot;&gt;exercies for that specific muscle gorup&lt;/span&gt;&#xa;&#xa;" style="shape=partialRectangle;html=1;whiteSpace=wrap;connectable=0;strokeColor=inherit;overflow=hidden;fillColor=none;top=0;left=0;bottom=0;right=0;pointerEvents=1;fontSize=16;" vertex="1" parent="CwI_LgiP8_NniUalK2Lb-12">
          <mxGeometry x="230" width="190" height="80" as="geometry">
            <mxRectangle width="190" height="80" as="alternateBounds" />
          </mxGeometry>
        </mxCell>
        <mxCell id="CwI_LgiP8_NniUalK2Lb-16" value="home" style="rounded=0;whiteSpace=wrap;html=1;" vertex="1" parent="1">
          <mxGeometry x="250" y="640" width="120" height="60" as="geometry" />
        </mxCell>
      </root>
    </mxGraphModel>
  </diagram>
</mxfile>
